<?xml version="1.0" standalone="no"?>
<!DOCTYPE svg PUBLIC "-//W3C//DTD SVG 20010904//EN"
 "http://www.w3.org/TR/2001/REC-SVG-20010904/DTD/svg10.dtd">
<svg version="1.0" xmlns="http://www.w3.org/2000/svg"
 width="3000.000000pt" height="3000.000000pt" viewBox="0 0 3000.000000 3000.000000"
 preserveAspectRatio="xMidYMid meet">

<g transform="translate(0.000000,3000.000000) scale(0.100000,-0.100000)"
fill="#000000" stroke="none">
<path d="M13155 27945 c-177 -34 -353 -102 -717 -275 -147 -70 -287 -142 -313
-159 -25 -17 -49 -31 -53 -31 -4 0 -15 12 -24 28 -25 42 -64 74 -100 81 -32 7
-33 9 -30 49 4 69 -30 46 -71 -48 -44 -99 -50 -150 -52 -425 -2 -300 -9 -333
-91 -424 -70 -78 -167 -135 -433 -256 -428 -194 -607 -296 -737 -422 -121
-117 -159 -200 -158 -343 1 -98 15 -150 108 -394 36 -92 32 -133 -13 -163 -45
-31 -68 -29 -126 10 -107 72 -105 70 -131 58 -50 -23 -50 -46 7 -166 65 -138
193 -521 214 -639 27 -155 13 -342 -28 -383 -40 -40 -114 18 -260 201 -65 80
-128 153 -142 162 -13 9 -41 17 -61 19 -20 2 -44 11 -53 19 -10 9 -32 21 -49
27 -22 7 -41 26 -58 55 -14 24 -28 44 -30 44 -3 0 -2 -29 2 -64 10 -94 -18
-236 -65 -333 -80 -166 -310 -399 -536 -545 -23 -14 -122 -69 -220 -123 -213
-116 -265 -151 -307 -214 -27 -38 -33 -58 -36 -113 -5 -79 2 -103 80 -273 85
-185 117 -267 138 -359 27 -115 41 -254 34 -336 l-7 -70 -38 6 c-34 6 -42 3
-65 -22 -14 -16 -38 -57 -53 -90 -28 -65 -51 -88 -172 -174 -90 -65 -305 -282
-366 -370 -108 -158 -186 -351 -218 -534 -18 -104 -19 -158 -5 -244 15 -92 49
-160 146 -290 100 -136 129 -188 142 -262 22 -117 -12 -179 -159 -291 -228
-174 -288 -238 -359 -384 -60 -123 -124 -314 -140 -417 -22 -139 -10 -241 50
-416 60 -173 60 -174 -22 -229 -39 -26 -43 -33 -48 -78 -5 -49 -6 -50 -100
-122 -310 -238 -477 -464 -547 -739 -25 -97 -24 -437 1 -578 33 -185 63 -246
185 -379 94 -103 109 -140 91 -221 -13 -52 -106 -253 -138 -294 -17 -22 -21
-23 -64 -12 -55 14 -103 2 -136 -33 -86 -92 -492 -1173 -637 -1696 -107 -388
-157 -779 -135 -1059 13 -171 38 -289 96 -462 106 -311 274 -594 455 -765 l81
-76 -25 -38 c-83 -125 -137 -279 -162 -463 -33 -247 -47 -720 -24 -858 36
-221 219 -448 436 -539 73 -30 186 -43 279 -31 203 26 513 224 582 372 23 50
42 69 42 43 0 -28 69 -339 130 -590 152 -617 345 -1195 564 -1687 296 -664
726 -1341 1280 -2018 488 -595 1332 -1438 1980 -1979 552 -460 1121 -843 1811
-1218 613 -333 909 -455 1562 -644 322 -93 437 -118 565 -126 91 -5 111 -3
133 11 25 17 31 16 163 -18 320 -82 584 -116 977 -123 281 -5 504 3 723 29 69
8 97 7 105 -1 18 -18 66 -13 110 13 23 13 76 29 117 35 308 48 765 175 1027
287 364 156 611 325 912 625 336 336 631 741 1188 1634 671 1075 1028 1731
1235 2270 182 473 323 963 447 1551 100 476 143 781 177 1234 16 214 19 232
61 370 145 476 209 847 244 1410 12 203 7 612 -11 765 -5 44 -14 179 -20 300
-34 692 -122 1149 -319 1643 -191 478 -437 976 -776 1566 -282 494 -369 664
-500 986 -78 191 -197 543 -255 755 -84 308 -92 389 -77 790 4 121 4 274 0
340 l-9 120 -17 -60 c-10 -33 -36 -107 -59 -164 -34 -85 -42 -119 -47 -196 -3
-51 -8 -95 -11 -97 -3 -2 -35 -18 -71 -36 -99 -50 -113 -69 -148 -202 -16 -64
-33 -145 -37 -180 -4 -36 -8 -72 -10 -80 -1 -8 -3 -29 -3 -45 -1 -22 -6 -31
-18 -33 -10 -1 -27 -4 -38 -6 -11 -2 -22 -5 -24 -5 -3 -1 0 -6 7 -13 18 -18
15 -28 -10 -28 -21 0 -21 0 -2 -16 10 -8 13 -13 7 -9 -7 3 -13 1 -13 -4 0 -6
4 -11 10 -11 5 0 2 -9 -7 -20 -10 -11 -23 -20 -30 -20 -7 0 -13 -5 -13 -11 0
-5 5 -7 12 -3 7 4 8 3 4 -5 -6 -9 -11 -9 -24 1 -11 9 -14 9 -9 1 5 -8 -1 -15
-18 -19 -20 -5 -25 -11 -22 -25 3 -11 1 -19 -5 -19 -6 0 -7 -7 -4 -15 3 -9 -1
-18 -9 -21 -8 -4 -15 -11 -15 -16 0 -6 6 -8 13 -5 8 3 14 -1 14 -9 0 -8 -5
-14 -10 -14 -5 0 -6 -7 -3 -16 4 -9 1 -23 -5 -30 -9 -11 -8 -14 2 -15 8 0 5
-4 -6 -9 -18 -8 -18 -9 -2 -9 10 -1 16 -5 13 -10 -4 -5 0 -12 6 -14 8 -3 6 -6
-4 -6 -10 -1 -18 -6 -18 -12 0 -5 4 -8 9 -5 5 3 11 -3 14 -14 3 -11 1 -22 -3
-25 -14 -9 -4 -38 16 -46 10 -4 13 -8 7 -8 -7 -1 -13 -7 -13 -15 0 -8 -5 -16
-12 -18 -6 -2 -8 -10 -4 -17 6 -9 11 -9 22 0 7 6 11 16 7 22 -3 6 -1 7 5 3 7
-4 12 -14 12 -22 0 -8 -4 -12 -10 -9 -5 3 -10 2 -10 -3 0 -5 -9 -13 -19 -18
-17 -8 -17 -11 -5 -22 12 -11 14 -10 14 3 0 8 7 15 15 15 8 0 15 -5 15 -11 0
-5 -4 -8 -9 -5 -5 3 -11 -3 -14 -13 -3 -14 -1 -18 9 -14 9 3 14 -1 14 -12 0
-12 -5 -15 -20 -10 -27 9 -25 -3 3 -16 20 -9 20 -9 -5 -4 -16 3 -28 1 -28 -5
0 -5 6 -9 13 -8 11 3 11 -3 -1 -46 -4 -15 -1 -18 10 -13 12 4 14 1 10 -16 -3
-12 -7 -16 -10 -9 -2 7 -8 10 -12 7 -5 -3 -6 -13 -3 -23 5 -15 3 -14 -18 3
l-24 20 16 -20 c11 -13 15 -34 13 -57 -3 -32 -1 -36 10 -25 9 8 11 18 5 28 -6
12 -3 21 8 30 12 10 15 10 9 2 -4 -8 -2 -13 6 -13 10 0 9 -3 -1 -9 -13 -8 -13
-12 0 -27 10 -13 10 -16 1 -10 -9 5 -15 1 -19 -13 -3 -12 -11 -21 -18 -21 -8
0 -11 -8 -8 -20 3 -11 10 -17 16 -13 6 4 7 1 3 -6 -5 -7 -14 -10 -22 -7 -8 3
-13 0 -11 -6 1 -7 -5 -12 -13 -13 -11 0 -15 -11 -14 -36 0 -28 -3 -36 -15 -34
-24 4 -42 -15 -36 -36 4 -13 1 -19 -9 -19 -21 0 -20 -19 2 -37 9 -9 4 -8 -12
2 -24 15 -28 15 -23 2 3 -8 0 -20 -6 -26 -7 -7 -12 -17 -12 -24 0 -7 -10 -12
-23 -11 -12 0 -20 -2 -17 -5 3 -2 -7 -11 -22 -18 -23 -11 -24 -12 -4 -7 l24 6
-20 -21 c-13 -14 -26 -19 -38 -15 -13 5 -16 4 -11 -4 8 -13 -18 -45 -28 -35
-3 4 -6 -1 -6 -11 0 -10 5 -14 12 -10 6 4 8 3 5 -4 -4 -5 -17 -8 -29 -4 -17 4
-20 2 -15 -11 3 -9 2 -19 -3 -22 -6 -4 -10 0 -10 7 0 9 -3 9 -10 -2 -9 -13
-11 -13 -21 0 -8 12 -10 12 -7 -5 4 -23 -21 -57 -35 -48 -6 3 -7 1 -3 -5 4 -7
2 -12 -4 -12 -6 0 -8 -5 -4 -11 4 -8 -1 -9 -15 -4 -13 4 -28 1 -38 -7 -14 -11
-15 -5 -9 61 7 89 -5 173 -44 294 -27 86 -53 206 -80 372 -24 151 -107 370
-246 648 -35 71 -64 129 -64 131 0 1 35 -4 78 -11 104 -19 383 -12 467 11 136
38 257 113 305 191 25 40 52 115 41 115 -4 0 -25 -16 -47 -36 -71 -64 -198
-115 -380 -150 -120 -24 -392 -24 -524 -1 -53 9 -148 17 -213 17 -151 0 -181
17 -196 110 -5 29 -11 35 -41 41 -19 4 -43 18 -52 31 -51 69 -197 282 -195
284 1 1 54 -8 117 -21 63 -13 124 -24 135 -25 17 0 17 2 -5 16 -14 9 -50 41
-80 70 -39 37 -68 56 -100 64 -25 6 -82 25 -128 42 l-82 32 -109 130 c-60 72
-148 174 -195 226 -47 52 -86 98 -86 102 0 5 17 26 37 49 71 78 219 164 368
213 104 34 257 66 317 66 52 0 50 -2 62 83 l5 37 -66 0 c-84 0 -289 -41 -394
-80 -155 -56 -303 -150 -386 -244 l-39 -45 -60 52 c-111 96 -188 154 -331 246
-150 96 -378 216 -431 227 -59 12 -107 -47 -70 -84 10 -10 10 -17 0 -32 -33
-53 -7 -103 93 -180 30 -23 52 -47 48 -53 -3 -6 -1 -7 5 -3 7 4 12 2 12 -4 0
-6 4 -9 9 -6 4 3 18 -5 30 -18 13 -14 17 -23 9 -24 -23 -2 -43 -7 -55 -15 -16
-10 -17 0 -1 17 7 7 22 11 33 8 11 -3 16 -1 12 4 -9 9 -57 14 -55 5 3 -14 -15
-40 -23 -35 -17 10 -9 -15 9 -26 16 -11 16 -11 0 -6 -11 3 -18 0 -18 -7 0 -8
-4 -7 -9 3 -6 8 -7 19 -4 25 3 5 0 5 -7 -2 -7 -6 -20 -9 -29 -6 -13 4 -14 3
-1 -5 8 -6 18 -8 24 -5 5 3 6 1 3 -4 -4 -6 -18 -10 -31 -10 -14 0 -32 -8 -41
-17 -9 -9 -21 -13 -27 -10 -7 5 -9 -2 -4 -19 3 -14 2 -29 -4 -32 -5 -3 -10 -1
-10 4 0 6 -5 11 -11 11 -5 0 -7 -6 -3 -12 6 -10 4 -10 -8 0 -13 10 -17 10 -22
0 -3 -7 -3 -3 0 10 4 15 1 22 -10 22 -9 0 -13 -6 -10 -14 4 -10 0 -13 -13 -11
-10 2 -19 4 -20 5 -2 2 -8 3 -14 4 -6 0 -18 10 -26 21 -13 16 -15 17 -10 3 4
-10 2 -18 -3 -18 -6 0 -10 4 -10 8 0 5 -7 17 -15 28 -15 19 -15 19 -8 0 5 -16
3 -18 -13 -13 -18 7 -18 6 -2 -7 17 -12 17 -14 -1 -31 -19 -17 -47 -13 -36 6
3 5 -1 6 -9 3 -9 -3 -13 -10 -10 -16 3 -5 -2 -8 -12 -6 -15 2 -19 -3 -17 -22
1 -16 0 -18 -4 -7 -4 17 -6 18 -24 1 -13 -12 -28 -15 -51 -11 -18 3 -27 3 -20
0 6 -2 9 -10 6 -15 -5 -7 -2 -8 5 -4 8 6 11 2 9 -10 -2 -11 2 -18 10 -16 15 3
16 -20 0 -36 -18 -18 -28 -14 -28 12 0 13 -6 26 -13 29 -8 3 -14 -1 -14 -9 0
-8 4 -14 8 -14 5 0 6 -13 3 -30 -7 -31 3 -39 23 -19 8 8 13 8 17 0 4 -6 1 -11
-7 -11 -19 0 -47 -32 -52 -60 -2 -12 -7 -25 -11 -29 -4 -3 -4 2 -1 12 5 14 0
17 -28 17 -30 0 -35 -4 -35 -22 0 -19 -2 -20 -10 -8 -7 11 -10 3 -11 -30 -1
-25 -3 -37 -6 -28 -4 15 -8 14 -29 -9 -27 -29 -32 -42 -9 -23 13 11 14 10 9
-6 -7 -18 -6 -18 16 1 l23 20 -12 -22 c-9 -17 -8 -24 3 -30 12 -7 12 -10 0
-20 -8 -8 -15 -9 -19 -3 -3 6 -1 10 5 10 6 0 8 5 5 10 -4 6 -11 8 -16 5 -5 -4
-9 -2 -9 4 0 5 -15 9 -32 9 l-33 -1 33 -14 c39 -16 41 -22 6 -15 -25 4 -26 3
-21 -21 7 -26 -13 -44 -36 -30 -7 3 -3 -3 8 -14 11 -11 25 -18 30 -15 6 3 4
-1 -2 -9 -7 -7 -13 -22 -14 -33 0 -21 0 -21 -9 -1 -8 17 -9 16 -10 -10 0 -27
-4 -80 -8 -112 -1 -7 -8 -10 -15 -7 -8 3 -14 -2 -14 -10 0 -9 8 -13 23 -10 13
2 25 0 29 -6 4 -6 -1 -7 -12 -3 -16 6 -16 5 -4 -10 11 -14 11 -17 0 -18 -8 -1
-18 -1 -22 0 -5 1 -6 -3 -2 -9 3 -6 9 -8 13 -6 4 2 7 -12 7 -32 0 -24 4 -36
13 -34 16 3 15 -4 -4 -33 -9 -14 -14 -32 -10 -40 3 -8 0 -15 -6 -15 -7 0 -6
-5 2 -15 7 -9 19 -14 27 -11 8 3 11 1 8 -4 -3 -6 -1 -10 6 -10 7 0 10 -3 7 -6
-4 -3 -16 -1 -27 6 -24 12 -27 5 -7 -15 7 -8 16 -11 20 -8 3 4 6 3 6 0 0 -3
-10 -11 -21 -18 -17 -9 -20 -8 -14 2 5 8 4 10 -3 5 -17 -10 -15 -26 4 -26 8 0
13 -4 10 -9 -4 -5 0 -12 6 -15 7 -3 1 -4 -14 -2 -22 2 -28 -1 -28 -16 0 -11 4
-17 9 -14 5 4 12 0 14 -6 3 -7 6 -5 6 6 1 11 4 16 9 12 12 -13 8 -31 -8 -38
-12 -5 -12 -7 3 -7 21 -1 18 -23 -4 -29 -11 -3 -11 -2 1 7 11 8 6 9 -20 5 -19
-3 -44 -6 -55 -8 -35 -4 -61 -23 -48 -36 8 -9 13 -7 18 9 6 19 8 19 21 6 17
-17 34 -20 34 -6 0 15 32 22 47 10 8 -7 12 -18 9 -26 -3 -7 -1 -13 4 -13 6 0
10 -4 10 -8 0 -4 -9 -8 -20 -8 -14 0 -19 6 -18 21 2 11 -1 21 -7 22 -5 1 -9
-5 -7 -14 2 -10 -1 -12 -10 -7 -11 6 -11 5 0 -8 9 -11 10 -18 2 -23 -5 -3 -13
2 -17 12 -11 29 -36 44 -46 27 -7 -12 -12 -11 -35 3 -25 17 -26 17 -13 0 15
-19 8 -49 -10 -45 -6 2 -14 -4 -16 -12 -3 -9 -1 -11 4 -5 14 17 32 15 43 -5 8
-15 6 -21 -7 -30 -15 -8 -13 -9 10 -6 15 3 27 0 27 -5 0 -5 -7 -9 -15 -9 -20
0 -19 -17 1 -28 15 -8 15 -10 0 -15 -9 -4 -13 -13 -10 -22 6 -14 9 -14 28 2
19 16 19 16 7 1 -7 -10 -10 -18 -6 -18 4 0 2 -7 -5 -15 -7 -9 -10 -18 -6 -22
3 -4 13 2 22 13 14 18 15 18 4 -3 -10 -22 -7 -27 13 -24 5 1 6 -3 3 -8 -4 -5
2 -12 11 -14 14 -4 13 -5 -4 -6 -13 0 -23 4 -23 9 0 6 -5 10 -11 10 -5 0 -7
-4 -4 -10 3 -5 1 -10 -5 -10 -6 0 -8 -5 -4 -11 3 -6 17 -8 30 -5 14 4 24 2 24
-4 0 -5 -6 -10 -14 -10 -8 0 -18 -5 -21 -10 -4 -7 3 -9 19 -6 14 3 28 0 31 -5
4 -5 2 -9 -4 -9 -6 0 -8 -6 -5 -13 2 -7 -13 -60 -34 -117 -21 -58 -56 -157
-77 -220 -44 -136 -108 -287 -165 -394 -48 -90 -49 -120 -5 -124 29 -3 35 3
91 90 85 130 159 311 204 496 13 50 27 92 32 92 4 0 8 -5 8 -11 0 -5 5 -7 10
-4 6 3 10 2 10 -4 0 -5 -4 -13 -10 -16 -5 -3 -10 -12 -10 -18 0 -7 4 -6 10 3
7 11 10 11 10 2 0 -7 4 -11 8 -8 5 3 9 -1 9 -9 0 -8 -4 -15 -9 -15 -5 0 -6 -4
-3 -10 3 -5 1 -10 -4 -10 -6 0 -11 -9 -11 -20 0 -21 15 -27 25 -10 3 6 1 10
-6 10 -7 0 -9 3 -6 7 4 3 19 -7 34 -22 25 -24 25 -26 5 -16 -29 15 -42 7 -35
-22 8 -33 22 -46 41 -40 13 4 14 3 3 -5 -17 -12 -6 -33 13 -26 8 3 17 0 22 -7
4 -8 3 -10 -4 -5 -7 4 -12 2 -12 -3 0 -6 -6 -10 -12 -9 -7 2 -11 -4 -9 -12 2
-8 4 -20 4 -27 0 -7 3 -12 6 -11 19 2 31 -3 27 -11 -4 -5 0 -12 6 -14 10 -4 9
-8 -2 -17 -12 -9 -11 -10 6 -5 18 5 21 2 17 -19 -3 -14 -8 -24 -12 -23 -3 1
-7 -1 -8 -5 -6 -17 -2 -20 10 -10 7 5 21 6 32 1 13 -5 15 -8 5 -8 -9 -1 -16
-12 -17 -28 0 -14 2 -21 5 -16 11 18 27 -9 27 -45 0 -28 -2 -30 -12 -16 -6 9
-9 22 -6 30 6 16 -22 20 -32 4 -3 -5 0 -7 8 -4 13 5 16 -1 20 -50 1 -16 6 -21
12 -15 15 15 29 11 16 -5 -10 -11 -8 -15 6 -19 17 -4 17 -5 0 -6 -14 -1 -16
-7 -11 -28 3 -16 6 -36 6 -45 -1 -21 2 -22 30 -7 15 8 19 8 14 0 -4 -6 -3 -11
2 -11 6 0 12 7 16 15 3 8 11 15 18 15 7 0 0 -12 -17 -27 -16 -14 -28 -29 -27
-32 12 -20 25 -29 36 -25 18 7 41 -22 25 -32 -8 -5 -9 -3 -4 5 5 9 2 12 -10 9
-10 -1 -20 -9 -23 -17 -3 -8 -1 -11 4 -8 5 2 14 -1 21 -8 10 -10 9 -16 -2 -25
-12 -10 -15 -9 -16 6 0 11 -3 14 -6 6 -2 -6 -10 -9 -15 -5 -7 4 -9 -2 -6 -15
4 -12 2 -22 -3 -22 -5 0 -9 7 -9 16 0 8 -4 12 -10 9 -5 -3 -10 -15 -10 -25 0
-10 -6 -22 -12 -26 -7 -4 -10 -4 -6 1 5 5 -1 14 -12 22 -11 8 -20 22 -19 31 0
13 3 12 11 -5 14 -30 20 -29 39 5 13 22 13 29 3 29 -7 0 -11 -4 -8 -8 12 -20
-20 -18 -42 2 -13 12 -24 18 -24 11 0 -17 -34 -19 -48 -2 -11 13 -11 11 -2 -8
12 -24 -4 -52 -26 -45 -6 2 -11 -3 -11 -12 0 -8 4 -15 8 -15 3 0 15 -12 24
-27 17 -25 17 -27 -6 -45 l-24 -19 27 7 c25 6 28 4 26 -19 -1 -15 -4 -24 -7
-22 -2 3 -10 0 -18 -6 -8 -7 -13 -8 -13 -1 0 5 7 12 15 16 8 3 15 11 15 18 0
10 -2 10 -9 -1 -5 -7 -13 -11 -19 -7 -6 3 -13 3 -16 -2 -9 -14 12 -36 35 -37
12 0 24 -7 27 -15 5 -13 3 -13 -11 -1 -10 7 -17 10 -17 6 0 -4 8 -14 18 -21
16 -13 16 -15 -3 -30 -16 -14 -17 -16 -2 -11 11 4 17 1 17 -8 0 -8 5 -15 10
-15 6 0 10 -7 10 -15 0 -8 -5 -15 -11 -15 -5 0 -8 4 -5 9 3 5 0 14 -8 20 -17
14 -27 -6 -20 -43 3 -21 1 -24 -13 -19 -17 6 -17 6 -1 -10 9 -9 21 -17 27 -17
6 0 11 -4 11 -10 0 -5 -4 -10 -8 -10 -4 0 -6 -16 -4 -35 3 -25 0 -35 -9 -35
-9 -1 -8 -4 4 -11 9 -6 15 -14 12 -19 -3 -5 5 -16 19 -25 30 -20 42 -65 26
-96 -8 -14 -9 -19 -1 -15 6 4 11 3 11 -1 0 -5 -66 -14 -147 -20 -124 -10 -184
-21 -368 -68 -324 -83 -401 -120 -490 -232 -105 -134 -114 -288 -27 -460 36
-70 143 -203 193 -241 32 -24 45 -40 39 -46 -6 -6 -10 -15 -10 -21 0 -5 4 -4
8 3 6 9 15 10 33 3 23 -9 23 -10 3 -10 -17 -1 -23 -9 -29 -38 -4 -25 -9 -32
-15 -23 -4 7 -6 20 -3 29 3 12 2 12 -7 -2 -6 -9 -8 -22 -5 -27 6 -10 -51 -37
-67 -32 -8 2 -5 -19 5 -36 5 -7 13 -10 18 -6 5 3 7 9 4 14 -3 4 2 13 10 20 12
10 15 10 15 -2 0 -23 -33 -48 -50 -38 -21 13 -32 2 -20 -21 6 -11 16 -16 22
-13 7 4 8 2 4 -5 -6 -8 -12 -9 -20 -2 -7 6 -16 8 -19 4 -4 -3 -7 1 -7 10 0 22
-12 21 -40 -3 -12 -11 -26 -18 -29 -15 -4 2 -5 -12 -3 -32 3 -25 1 -34 -7 -29
-6 4 -10 13 -9 20 2 6 -1 11 -7 11 -5 0 -10 -10 -9 -23 1 -17 -2 -20 -12 -11
-8 6 -20 9 -28 6 -35 -14 -274 76 -306 115 -60 69 -197 326 -219 410 -9 30
-12 86 -9 160 8 215 71 320 360 604 165 161 373 330 488 396 62 36 214 85 339
109 137 27 173 46 211 112 l29 52 -22 9 c-17 6 -18 10 -7 13 50 17 68 84 32
116 -56 50 -387 -26 -637 -148 -212 -102 -416 -255 -692 -517 -51 -49 -101
-88 -111 -88 -92 0 -472 -438 -845 -972 -421 -602 -639 -986 -911 -1600 -25
-58 -25 -58 -69 -58 -57 0 -87 25 -94 80 -4 27 0 53 12 80 10 21 15 48 12 59
-3 12 0 18 7 15 7 -3 21 15 33 41 16 36 18 47 8 55 -10 9 -13 7 -11 -7 4 -24
-13 -34 -36 -22 -10 6 -24 7 -31 3 -6 -4 -9 -4 -5 1 13 14 -11 33 -35 28 -18
-4 -19 -3 -7 6 13 10 13 12 0 21 -8 5 -20 8 -27 5 -7 -2 -10 2 -6 10 3 8 9 12
14 9 6 -3 16 0 24 6 15 13 17 12 19 -17 2 -25 15 -43 31 -43 17 0 28 31 15 44
-7 7 -10 4 -10 -9 0 -10 -3 -15 -7 -11 -13 13 -13 49 -1 64 10 12 10 14 1 8
-7 -4 -13 -2 -13 3 0 6 5 11 10 11 6 0 10 5 10 11 0 8 -5 8 -15 -1 -8 -7 -15
-19 -15 -26 0 -8 -9 -14 -20 -14 -25 0 -26 16 -2 29 11 7 13 10 3 11 -11 0
-11 3 0 18 13 16 13 16 -5 2 -18 -14 -19 -13 -13 3 4 12 1 20 -10 24 -15 6
-14 7 3 14 17 7 17 8 1 8 -10 1 -15 6 -12 11 4 7 14 6 28 -1 18 -9 20 -9 10 2
-16 16 -18 63 -3 54 6 -4 8 -15 5 -26 -4 -10 -2 -19 3 -19 5 0 12 11 14 25 3
14 1 25 -4 25 -5 0 -7 4 -3 9 3 6 -6 8 -20 5 -19 -3 -23 -1 -19 11 4 8 12 15
20 15 15 0 14 34 -1 47 -4 5 -5 2 -1 -4 4 -7 3 -13 -2 -13 -5 0 -14 -10 -21
-22 -6 -13 -9 -15 -7 -5 5 14 1 16 -20 13 -19 -4 -23 -2 -15 7 15 19 7 53 -12
49 -16 -3 -15 13 1 43 3 5 7 20 8 33 3 24 -2 25 -105 12 -2 0 2 -6 8 -14 13
-15 -3 -27 -27 -19 -10 4 -10 8 0 21 11 15 11 15 -3 4 -11 -8 -14 -21 -11 -39
4 -24 6 -25 12 -8 4 11 9 14 13 8 4 -6 0 -16 -8 -23 -12 -10 -16 -8 -24 11 -9
22 -10 22 -12 4 -1 -11 -1 -27 0 -35 2 -13 0 -13 -8 -1 -11 17 -41 24 -41 10
0 -5 5 -9 10 -9 6 0 10 -5 10 -11 0 -6 -7 -8 -16 -5 -12 5 -15 2 -10 -10 4
-12 2 -15 -9 -10 -8 3 -15 1 -15 -3 0 -15 -33 -22 -44 -10 -8 9 -8 10 2 5 6
-4 12 -2 12 3 0 6 -9 11 -20 11 -11 0 -20 7 -20 15 0 8 6 14 13 12 7 -1 11 6
9 17 -3 14 1 17 13 12 10 -4 14 -2 9 5 -4 6 0 16 7 21 11 8 10 9 -3 4 -21 -6
-21 -6 -7 31 8 23 8 26 -2 16 -18 -18 -32 -16 -25 2 5 14 -5 20 -27 16 -5 -1
-6 3 -2 9 3 5 13 10 21 10 8 0 14 5 14 11 0 5 -5 7 -10 4 -5 -3 -10 1 -10 9 0
10 -6 13 -15 10 -21 -9 -19 9 7 42 12 16 15 23 8 17 -20 -19 -25 -16 -28 12
-1 14 3 25 9 25 5 0 7 -4 4 -10 -3 -5 -1 -10 5 -10 7 0 10 6 7 13 -2 6 0 20 5
29 7 14 5 16 -8 11 -12 -4 -15 -3 -10 5 9 15 -18 55 -30 44 -4 -4 -2 1 5 10 7
10 17 15 22 12 5 -3 9 -3 9 1 0 3 -11 10 -25 15 -17 7 -25 17 -24 32 1 22 1
22 8 -2 l7 -25 6 28 c4 22 2 27 -14 27 -14 0 -18 5 -14 16 5 12 1 14 -17 8
-12 -4 -24 -11 -25 -15 -2 -5 -9 -6 -15 -2 -6 4 -8 0 -4 -10 4 -10 -2 -23 -17
-34 -12 -10 -21 -24 -18 -31 2 -7 -2 -10 -12 -6 -11 4 -16 1 -16 -10 0 -9 -4
-16 -10 -16 -5 0 -7 7 -4 15 4 11 2 13 -9 9 -8 -3 -18 0 -23 7 -4 7 -3 10 3 6
6 -4 16 7 22 25 10 28 9 35 -5 45 -9 7 -20 10 -24 8 -5 -3 -11 2 -14 11 -4 9
-2 13 5 8 8 -4 9 1 4 16 -4 12 -3 20 1 17 5 -3 9 8 9 24 0 19 -4 28 -12 24
-17 -6 -17 31 -1 41 8 5 6 9 -7 14 -21 7 -29 37 -13 47 6 3 8 1 5 -4 -4 -6 0
-16 8 -23 19 -16 19 -11 0 31 -8 19 -14 26 -15 17 0 -21 -36 -25 -43 -5 -2 6
6 23 19 37 24 26 24 26 2 27 -12 1 -25 8 -31 15 -6 9 -7 8 -3 -4 4 -13 0 -18
-15 -18 -11 0 -18 -4 -15 -9 3 -5 0 -11 -7 -14 -8 -3 -19 3 -25 14 -9 14 -8
21 4 34 8 8 12 15 8 15 -3 0 -1 6 5 14 8 10 9 16 1 21 -5 3 -10 1 -10 -5 0
-11 -24 -40 -33 -40 -3 0 -3 9 0 20 4 16 2 19 -11 14 -9 -3 -13 -10 -10 -15 3
-5 -2 -6 -11 -3 -10 4 -12 11 -7 18 12 16 14 83 3 90 -5 3 -7 -3 -4 -13 4 -16
1 -19 -16 -14 -12 3 -21 13 -21 25 0 10 5 16 10 13 6 -3 10 -2 10 3 0 5 -10
12 -22 16 -19 5 -20 8 -8 15 10 7 17 6 22 -2 5 -8 8 -7 8 5 0 9 -5 20 -10 23
-6 4 -7 11 -4 17 4 6 12 1 20 -13 l12 -24 -1 27 c-1 14 -4 25 -6 22 -2 -2 -10
4 -17 14 -12 15 -15 15 -24 2 -8 -13 -10 -12 -11 5 -3 25 -2 34 5 63 3 15 1
20 -6 16 -8 -5 -9 6 -5 36 3 28 2 39 -3 30 -8 -12 -13 -11 -30 8 -24 25 -32
28 -24 9 5 -14 -41 -67 -58 -67 -5 0 -7 -4 -4 -9 3 -5 -1 -14 -8 -20 -12 -10
-13 -8 -9 8 3 13 1 21 -6 21 -7 0 -9 5 -5 11 4 8 9 8 13 1 4 -7 12 -8 21 -2
13 8 12 10 -2 10 -10 0 -18 6 -18 13 0 9 -3 8 -9 -2 -7 -11 -13 -9 -30 8 -14
14 -17 21 -7 21 7 0 20 7 27 16 11 13 10 17 -5 26 -17 9 -16 11 3 25 25 17 28
35 5 26 -14 -5 -15 -3 -4 18 12 21 11 22 -2 12 -16 -14 -28 -8 -28 14 0 9 5
11 13 7 6 -4 3 2 -7 14 -11 12 -25 22 -33 22 -8 0 -12 4 -9 9 4 5 0 11 -6 14
-10 3 -10 8 2 23 14 18 14 18 -3 5 -9 -8 -19 -12 -20 -10 -1 2 -9 12 -16 22
-12 15 -12 17 3 11 16 -6 23 15 10 29 -12 12 -13 92 -1 99 8 5 6 8 -6 8 -11 0
-15 4 -11 12 5 7 2 9 -8 5 -12 -4 -14 0 -10 16 5 20 4 20 -11 8 -15 -12 -16
-11 -11 18 5 25 3 31 -10 31 -11 0 -15 -5 -10 -12 5 -10 4 -10 -6 -1 -7 6 -19
9 -28 6 -10 -4 -13 -2 -8 5 4 7 2 12 -4 12 -6 0 -8 6 -4 13 4 6 -2 4 -13 -5
-28 -25 -46 -23 -37 4 6 21 5 22 -11 8 -11 -9 -16 -10 -11 -2 4 6 2 12 -4 12
-6 0 -3 12 7 27 l18 28 -34 -24 -33 -24 13 24 c7 13 12 26 12 29 -1 3 1 7 4
10 4 3 2 -2 -2 -10 -8 -13 -6 -13 8 -2 9 8 21 11 27 7 5 -3 10 -2 10 4 0 13
-44 61 -56 61 -5 0 -2 -5 6 -10 12 -7 10 -9 -7 -7 -17 1 -20 5 -12 19 8 14 6
16 -8 11 -15 -6 -16 -4 -6 8 12 15 3 41 -13 40 -5 -1 -10 4 -10 9 -3 23 -5 24
-15 10 -8 -12 -9 -10 -4 7 3 12 1 24 -5 28 -5 3 -10 1 -10 -4 0 -6 -9 -11 -20
-11 -26 0 -26 16 1 23 13 4 18 10 14 17 -5 9 -9 9 -14 1 -10 -15 -58 -10 -58
6 0 10 4 10 11 3 5 -5 17 -10 26 -10 9 0 5 6 -10 14 -18 9 -29 10 -40 2 -8 -6
-12 -6 -8 -2 4 5 -2 17 -13 27 -15 13 -19 24 -14 40 5 14 3 19 -3 15 -6 -3
-13 -2 -17 4 -4 6 -11 8 -16 5 -14 -9 -11 2 7 19 13 13 13 16 1 16 -18 0 -42
54 -34 75 4 8 2 17 -3 20 -6 4 -10 -2 -11 -12 0 -14 -2 -14 -9 5 -5 12 -12 22
-15 22 -4 0 -3 -4 0 -10 3 -6 -1 -7 -10 -4 -14 6 -14 8 1 19 16 11 16 13 -2
23 -10 6 -13 12 -6 12 8 0 6 6 -5 19 -40 44 -43 49 -30 54 9 4 9 6 -1 6 -7 1
-10 6 -6 12 3 6 -6 23 -21 39 -16 17 -24 33 -20 41 5 7 4 10 -3 5 -11 -7 -27
28 -18 43 3 4 -6 7 -19 5 -14 -1 -23 2 -19 7 3 5 9 7 13 5 3 -3 7 4 7 14 0 10
-4 16 -8 14 -4 -3 -13 -2 -18 1 -15 9 9 37 27 31 7 -3 13 -1 13 4 0 6 -6 10
-14 10 -8 0 -12 9 -11 25 2 14 -1 25 -6 25 -5 0 -9 6 -9 13 0 8 -6 14 -13 14
-11 0 -11 -6 -3 -24 6 -12 14 -23 19 -23 4 0 7 -5 7 -10 0 -7 -6 -7 -19 -1
-10 6 -21 8 -23 5 -3 -3 -8 4 -11 16 -3 12 -1 18 5 14 5 -3 4 3 -3 14 -7 12
-17 18 -21 16 -4 -3 -8 0 -8 7 0 7 11 10 32 7 28 -4 29 -4 13 8 -10 7 -22 11
-26 8 -5 -3 -6 2 -3 11 5 11 0 18 -15 22 -11 3 -18 10 -15 15 3 5 12 7 19 4 9
-3 13 2 11 17 -4 28 -25 76 -25 59 -1 -7 -6 -10 -13 -6 -8 5 -9 2 -5 -10 4
-10 3 -15 -3 -11 -6 3 -10 12 -10 20 0 7 -3 15 -7 18 -5 2 -3 3 2 1 16 -3 50
25 41 33 -4 4 -10 3 -14 -2 -4 -6 -18 -11 -32 -12 -15 -1 -18 0 -7 3 9 3 15
10 12 15 -3 5 1 6 9 3 25 -10 19 23 -8 51 -17 17 -21 26 -12 35 8 8 7 10 -5 5
-11 -4 -18 0 -22 14 -3 12 -1 21 5 21 5 0 6 5 3 10 -4 6 -13 7 -23 1 -12 -6
-24 -4 -37 6 -20 15 -20 15 2 9 12 -4 24 -2 28 4 3 5 1 10 -5 10 -6 0 -10 8
-8 18 2 13 -3 16 -22 14 -14 -1 -20 1 -14 5 12 9 15 45 3 38 -12 -8 -39 6 -33
16 3 5 10 6 16 3 7 -4 8 -2 4 5 -4 6 -12 8 -18 5 -7 -5 -9 -1 -5 9 3 10 2 17
-3 17 -6 0 -10 7 -10 16 0 8 -4 13 -9 9 -6 -3 -6 -18 -1 -35 5 -19 5 -28 -1
-25 -5 4 -9 15 -9 26 0 14 -4 18 -12 13 -10 -6 -10 -4 0 8 10 13 10 17 -3 22
-8 3 -21 3 -29 0 -8 -3 -16 2 -19 13 -4 16 -5 16 -6 -2 -1 -17 -3 -18 -12 -5
-8 12 -10 10 -5 -10 5 -24 4 -24 -9 -6 -13 17 -15 18 -21 2 -4 -11 -13 -15
-26 -10 -12 3 -18 2 -15 -3 4 -5 -1 -20 -9 -32 -13 -19 -18 -20 -32 -9 -13 11
-14 11 -8 0 5 -9 3 -13 -5 -11 -24 3 -40 -1 -36 -8 3 -5 -1 -14 -9 -21 -9 -9
-14 -9 -14 -2 0 7 -6 10 -12 8 -7 -3 -19 2 -27 9 -8 8 -17 11 -20 6 -3 -5 -25
-9 -48 -9 -22 1 -39 -2 -37 -5 2 -4 -3 -9 -11 -13 -8 -3 -15 -1 -15 3 0 10
-19 9 -37 -2 -6 -4 -14 -3 -17 2 -8 13 19 62 29 53 5 -4 5 -1 1 6 -4 7 -17 10
-30 6 -12 -3 -34 -1 -48 5 -22 8 -26 8 -21 -4 3 -8 0 -15 -6 -15 -6 0 -11 4
-11 9 0 5 -12 10 -27 11 -56 2 -71 4 -67 11 6 10 -26 20 -38 12 -7 -3 -8 -1
-4 5 4 7 1 12 -9 12 -11 0 -15 -5 -12 -15 4 -8 2 -17 -3 -20 -6 -4 -10 -3 -10
2 0 4 -10 19 -21 33 -14 17 -19 19 -15 7 5 -15 3 -16 -16 -6 -17 9 -24 8 -33
-5 -7 -8 -15 -13 -18 -9 -4 3 -7 -1 -7 -10 0 -21 -20 -22 -46 -3 -13 10 -14
14 -4 13 8 -2 20 -5 25 -9 6 -4 10 8 10 28 1 40 -2 42 -15 12 -8 -19 -9 -17
-4 12 3 19 2 30 -3 24 -4 -6 -19 -17 -33 -24 l-25 -12 25 23 25 24 -52 3 c-65
4 -148 -18 -265 -68 -97 -42 -128 -49 -128 -26 0 17 176 130 234 150 24 8 68
16 99 17 37 2 54 6 50 13 -9 14 -11 46 -3 41 3 -2 12 1 20 6 11 7 9 8 -8 6
-13 -2 -27 -9 -32 -16 -5 -9 -10 -10 -14 -2 -4 6 -2 11 3 11 6 0 11 7 11 15 0
17 -16 20 -25 5 -10 -16 -48 5 -52 29 -2 13 1 20 7 16 13 -8 13 6 1 39 -7 18
-6 27 4 36 10 8 14 8 18 -2 3 -7 4 -3 4 10 -1 16 -6 21 -17 17 -11 -4 -10 -1
3 9 9 7 17 25 17 40 0 14 6 26 13 26 7 0 13 9 14 20 1 11 -2 20 -8 20 -5 0 -8
3 -8 8 3 20 -3 22 -18 5 -10 -10 -14 -14 -10 -7 4 7 6 18 5 25 -2 8 4 13 13
13 11 -1 14 5 11 23 -3 17 -1 22 9 18 21 -7 37 7 43 39 4 21 2 26 -9 22 -16
-6 -16 15 0 26 6 4 2 8 -7 8 -10 0 -18 -5 -18 -12 0 -6 -3 -8 -7 -5 -3 4 -12
-1 -18 -10 -11 -14 -13 -2 -10 67 1 47 -2 93 -7 104 -7 12 -7 16 0 12 16 -9
41 48 30 68 -6 10 -5 16 2 16 14 0 13 27 -2 33 -10 4 -10 6 -1 6 7 1 10 8 6
18 -5 12 -3 14 8 9 11 -6 10 -4 -1 6 -19 17 -22 48 -4 41 8 -3 11 -9 8 -14 -3
-5 0 -9 6 -9 6 0 8 11 6 25 -3 14 0 25 5 25 5 0 4 9 -3 21 -11 17 -10 22 3 32
9 7 21 23 28 37 11 24 11 24 -3 6 -15 -18 -16 -18 -16 -2 0 10 10 27 23 37
l22 20 -24 -13 c-19 -10 -25 -10 -28 0 -3 6 -9 12 -15 12 -7 0 -6 -5 1 -14 7
-9 8 -17 2 -20 -5 -3 -11 0 -14 6 -7 19 -19 2 -19 -26 0 -17 -5 -23 -15 -19
-10 4 -11 9 -2 19 9 11 5 17 -20 31 -17 10 -31 21 -31 26 0 4 -12 7 -26 7 -14
0 -23 -4 -19 -10 3 -5 1 -10 -4 -10 -11 0 -14 9 -14 41 0 9 -6 16 -13 16 -7 0
-11 -4 -9 -8 7 -10 -5 -39 -17 -39 -5 0 -6 6 -2 13 4 6 -1 5 -12 -4 -14 -12
-25 -14 -42 -8 -13 5 -21 12 -18 17 2 4 -4 8 -14 8 -11 0 -16 -6 -13 -16 4 -9
-1 -7 -10 5 -14 18 -14 20 4 23 10 2 19 7 19 11 0 4 9 18 20 31 12 13 20 18
20 10 0 -7 2 -11 5 -8 12 11 -7 37 -23 31 -14 -5 -15 -3 -4 8 9 9 15 10 23 2
15 -15 39 -5 39 16 0 20 31 24 42 7 5 -7 8 -7 8 2 0 7 5 10 12 6 7 -4 8 -3 4
5 -4 6 -12 9 -17 6 -5 -4 -9 -1 -9 4 0 6 5 11 11 11 5 0 7 6 3 13 -5 7 0 6 11
-3 17 -14 18 -13 12 3 -4 11 -3 16 4 12 6 -4 13 2 16 14 3 12 9 21 14 21 5 0
6 6 3 14 -3 8 0 17 6 21 6 4 9 1 8 -7 -2 -7 3 -12 10 -10 6 1 12 -3 12 -9 0
-5 5 -7 11 -3 8 4 7 9 -2 16 -10 7 -11 11 -3 14 7 3 10 15 7 27 -4 18 -3 20 7
7 10 -12 11 -11 7 7 -4 19 -2 21 11 14 14 -7 17 -4 17 19 0 22 -4 27 -19 24
-11 -2 -30 -14 -43 -26 -18 -17 -23 -18 -17 -5 3 9 10 17 14 17 4 0 10 11 12
25 4 20 2 23 -8 15 -18 -16 -56 27 -48 54 3 14 2 17 -4 8 -6 -9 -15 -10 -35
-3 -15 6 -27 14 -27 18 0 5 -13 14 -30 21 -16 8 -30 17 -30 22 0 4 44 44 99
89 195 161 291 284 491 631 24 41 75 127 115 190 143 231 218 374 295 570 19
47 41 94 50 104 13 17 13 18 0 11 -12 -7 -13 -6 -3 7 7 8 10 18 5 22 -4 4 1
12 11 17 11 7 16 18 13 35 -4 18 -1 24 11 22 8 -2 19 7 24 20 5 13 5 22 -1 22
-6 0 -10 -10 -10 -22 0 -26 -9 -19 -15 11 -2 12 0 19 6 16 5 -4 12 1 15 10 6
14 10 12 30 -12 17 -22 20 -31 11 -43 -10 -13 -10 -13 4 -3 9 7 20 9 25 5 5
-4 -1 5 -13 19 -25 27 -30 45 -11 33 7 -4 8 -3 4 5 -13 20 24 24 47 5 14 -12
17 -13 9 -3 -6 9 -8 20 -4 24 4 5 2 5 -4 2 -7 -4 -14 3 -18 18 -4 14 -11 25
-17 25 -8 0 -7 -5 1 -15 10 -12 9 -16 -4 -21 -9 -3 -23 -1 -31 6 -9 7 -15 8
-15 2 0 -5 7 -13 16 -16 8 -3 12 -11 8 -17 -5 -8 -10 -6 -16 5 -7 12 -13 14
-22 7 -8 -7 -12 -4 -13 11 -1 11 1 17 4 14 4 -3 15 2 25 11 11 10 18 13 16 8
-2 -6 1 -11 6 -13 16 -4 16 29 0 35 -8 3 -14 9 -14 15 0 5 4 7 9 4 5 -4 11 -3
14 1 2 5 2 3 1 -4 -2 -7 1 -15 6 -18 6 -4 10 -1 10 5 0 7 7 10 14 7 9 -4 17 2
21 14 6 17 9 18 23 7 11 -9 14 -9 9 -1 -5 8 4 18 23 28 16 8 30 21 29 28 0 9
-2 9 -6 0 -2 -7 -16 -13 -29 -13 -13 0 -23 -3 -22 -7 2 -5 -1 -9 -7 -10 -5 -2
-10 1 -10 6 0 5 -3 13 -7 17 -5 4 -8 2 -8 -4 0 -7 -5 -12 -11 -12 -8 0 -7 5 2
16 7 8 20 13 29 11 10 -2 17 2 17 10 0 8 -6 12 -14 9 -8 -3 -11 -1 -8 4 8 13
35 13 35 -1 0 -5 5 -7 10 -4 7 4 2 14 -11 26 -12 10 -17 19 -11 19 6 0 20 17
31 38 11 20 20 31 21 25 0 -21 24 -15 39 10 13 20 13 21 -3 8 -13 -11 -20 -11
-28 -3 -9 9 -9 12 0 12 7 0 12 12 12 26 0 16 5 24 13 21 6 -2 11 -13 9 -23 -1
-13 3 -10 14 9 8 16 16 40 17 55 1 15 8 28 15 28 6 1 17 2 23 3 5 0 8 5 5 10
-3 5 -15 7 -26 4 -12 -3 -20 0 -20 6 0 7 4 10 9 6 6 -3 15 4 22 16 10 19 9 21
-5 16 -10 -4 -19 -1 -22 8 -3 8 -12 11 -22 7 -14 -5 -15 -4 -2 10 8 9 19 14
23 11 5 -3 15 3 23 13 9 11 13 13 9 7 -3 -7 -1 -13 4 -13 6 0 11 -7 11 -15 0
-8 5 -15 11 -15 6 0 8 6 5 13 -3 6 -9 20 -12 30 -4 9 -10 17 -14 17 -5 0 -6 9
-3 20 3 11 1 20 -5 20 -6 0 -12 -6 -14 -14 -2 -7 -10 2 -19 20 -9 19 -13 34
-8 34 4 0 10 -9 14 -19 4 -13 12 -18 21 -14 8 3 13 12 10 20 -3 8 -1 11 4 8 6
-3 10 -1 10 4 0 6 -6 11 -12 11 -9 0 -9 3 1 9 11 7 10 10 -5 14 -16 4 -16 5 3
6 12 0 25 -3 28 -9 9 -15 25 -12 25 6 0 8 -4 13 -9 10 -5 -4 -7 4 -5 16 2 13
2 17 -2 11 -8 -18 -25 -16 -18 1 3 9 -2 16 -13 18 -11 2 -14 6 -7 11 6 3 24
-5 39 -19 15 -14 32 -23 39 -20 7 3 7 5 -1 5 -7 1 -13 6 -13 12 0 5 5 7 10 4
6 -3 10 -2 10 3 0 6 -7 12 -15 16 -16 6 -21 36 -5 36 5 0 14 -8 19 -17 6 -10
11 -13 11 -6 0 6 -6 18 -13 25 -8 7 -12 20 -9 28 3 8 1 12 -3 8 -11 -10 -47
11 -40 23 4 5 11 9 16 9 6 0 7 -5 3 -12 -4 -7 -3 -8 4 -4 22 13 13 28 -13 22
-19 -5 -23 -3 -19 8 3 8 14 13 25 11 10 -2 19 1 19 7 0 5 -7 8 -15 4 -8 -3
-15 0 -15 7 0 21 20 35 41 30 16 -4 17 -9 7 -27 -10 -19 -10 -20 6 -7 10 8 15
23 13 33 -3 10 -1 16 3 13 5 -3 11 -1 14 4 6 8 -40 26 -57 22 -5 -1 -6 3 -2 9
3 6 11 7 17 4 7 -5 9 -2 6 8 -4 8 -1 15 7 15 7 0 10 -8 7 -19 -3 -13 1 -18 14
-17 11 0 14 3 7 5 -13 6 -6 34 9 34 5 0 6 -5 2 -12 -4 -7 -3 -8 4 -4 7 4 8 15
2 30 -5 15 -5 27 2 34 14 14 2 31 -22 29 -10 -1 -17 -4 -14 -8 2 -4 1 -16 -4
-28 -5 -14 -11 -18 -21 -11 -12 7 -12 12 -3 23 7 7 9 17 5 20 -3 4 2 9 11 13
9 3 16 10 16 16 0 5 -4 7 -8 4 -5 -3 -9 1 -9 9 0 11 4 12 14 4 10 -9 13 -8 13
4 0 8 -5 17 -11 19 -6 2 8 4 31 5 49 2 55 6 46 29 -6 15 -9 15 -31 -6 -14 -13
-25 -18 -25 -12 0 7 5 12 11 12 5 0 7 5 3 12 -5 7 -3 8 6 3 10 -6 12 -4 7 7
-4 13 -1 14 21 8 15 -4 26 -12 25 -18 -1 -5 5 -8 15 -5 22 5 60 -21 44 -31 -7
-4 -12 -2 -12 3 0 6 -5 11 -11 11 -5 0 -7 -4 -4 -10 3 -5 1 -10 -4 -10 -6 0
-11 -5 -11 -11 0 -5 4 -8 9 -4 5 3 13 0 16 -6 5 -6 12 -3 22 11 11 15 12 24 4
34 -7 9 -7 16 2 26 10 12 9 12 -5 1 -15 -11 -18 -11 -18 2 0 14 -33 31 -57 28
-18 -3 -16 13 5 31 30 26 40 29 37 11 -1 -10 -8 -17 -14 -16 -17 4 -13 -17 5
-24 8 -3 22 1 31 9 13 14 13 19 -3 43 -14 22 -15 27 -4 23 8 -3 14 -11 13 -17
-2 -6 5 -11 15 -11 10 0 23 -5 29 -11 8 -8 13 -8 17 0 4 6 5 12 2 12 -3 1 -9
2 -13 3 -19 4 -77 46 -64 46 7 0 11 6 8 13 -4 10 1 13 16 10 28 -5 57 34 35
49 -10 7 -8 8 7 7 43 -3 62 2 62 16 0 18 -13 20 -21 3 -3 -10 -9 -8 -19 4 -8
10 -16 17 -18 15 -2 -1 -1 2 2 7 10 12 31 -3 23 -17 -3 -7 1 -4 9 5 8 10 17
15 20 11 4 -3 7 2 7 11 0 14 5 17 21 13 16 -4 19 -3 11 5 -8 8 -4 22 14 49 13
21 24 43 24 49 0 5 5 10 10 10 6 0 10 5 10 11 0 5 -4 7 -10 4 -9 -6 -14 8 -11
28 0 4 -7 7 -17 7 -14 0 -15 2 -2 10 9 6 18 6 24 0 6 -6 14 -10 20 -10 6 0 6
4 -1 11 -15 15 5 78 35 108 13 13 25 21 28 18 2 -2 -2 -10 -11 -17 -8 -7 -15
-18 -15 -24 0 -6 9 0 20 14 17 23 18 27 4 48 -9 13 -13 26 -10 30 3 3 6 0 6
-7 0 -8 5 -9 19 -2 10 6 21 7 25 3 4 -3 4 1 0 11 -5 13 -2 16 11 11 15 -6 15
-4 4 14 -13 21 -13 21 -24 -5 -10 -24 -11 -25 -25 -7 -14 16 -13 17 4 11 13
-5 17 -3 13 6 -3 8 -1 20 3 27 7 11 11 11 26 -1 15 -12 16 -12 9 0 -6 11 -3
13 13 9 12 -4 25 -2 28 3 3 5 2 9 -3 8 -38 -7 -40 36 -2 53 15 7 25 18 22 25
-3 7 -1 13 5 13 5 0 22 12 37 28 16 15 25 21 20 13 -5 -10 -4 -12 4 -7 6 4 9
11 6 15 -2 5 15 26 38 48 l43 41 180 7 c145 6 203 4 304 -10 158 -22 451 -16
645 14 126 19 338 62 400 81 514 155 652 201 877 291 223 89 375 137 528 168
143 29 633 97 806 112 138 12 142 12 178 -9 57 -34 84 -28 49 10 -15 17 -14
18 31 18 153 0 1364 -231 1626 -310 98 -30 260 -92 260 -99 0 -4 9 -7 21 -8
58 -5 428 -250 422 -281 -2 -6 3 -9 11 -6 7 3 27 -11 44 -30 16 -19 32 -33 34
-31 2 3 24 -17 48 -42 37 -39 39 -43 13 -25 -32 23 -59 29 -48 12 3 -6 0 -13
-8 -16 -9 -3 -13 -13 -10 -25 3 -10 9 -17 13 -14 12 8 71 -20 63 -30 -5 -4 0
-5 9 -2 11 4 21 0 27 -11 6 -9 11 -14 11 -9 0 4 10 -3 22 -15 14 -14 17 -23
10 -26 -9 -3 -9 -9 -1 -23 10 -19 29 -18 29 2 0 6 -4 8 -9 5 -5 -4 -7 3 -4 14
5 17 7 17 20 5 8 -8 18 -15 22 -15 4 0 8 -7 8 -15 0 -8 -5 -14 -11 -13 -7 2
-14 -1 -16 -6 -5 -8 11 -13 62 -18 9 -1 15 -6 12 -10 -2 -4 4 -11 13 -17 23
-13 12 -14 -21 -1 -14 5 -26 7 -26 5 0 -3 12 -10 27 -16 22 -8 24 -12 13 -19
-15 -9 -15 -9 40 -27 12 -4 12 -7 -4 -19 -11 -8 -16 -14 -10 -14 5 0 2 -5 -6
-11 -12 -9 -11 -10 7 -6 13 3 26 0 30 -5 3 -7 1 -8 -5 -4 -7 4 -12 3 -12 -3 0
-5 6 -12 13 -14 8 -4 6 -6 -4 -6 -9 -1 -24 8 -34 19 -16 17 -69 50 -82 50 -2
0 -1 -4 2 -10 7 -12 -21 -2 -52 17 -15 10 -23 11 -28 3 -3 -6 -3 -10 2 -9 17
3 36 -1 30 -7 -9 -9 25 -44 37 -37 6 3 8 3 4 -1 -4 -5 5 -19 20 -33 15 -13 21
-22 15 -18 -7 3 -13 1 -13 -5 0 -6 -4 -8 -10 -5 -19 12 -10 -8 13 -27 12 -11
33 -30 47 -42 14 -12 31 -21 38 -18 7 2 12 -1 12 -7 0 -17 89 -99 94 -87 2 6
4 4 5 -4 0 -8 -4 -24 -9 -35 l-9 -20 0 20 c-1 17 -3 18 -11 5 -8 -13 -11 -13
-19 -1 -5 8 -14 10 -21 6 -9 -5 -11 -4 -6 4 8 13 -21 47 -32 37 -3 -4 0 -11 7
-15 8 -5 15 -23 16 -41 2 -18 8 -36 15 -40 9 -6 9 -13 1 -29 -14 -25 -18 -26
-18 -6 0 8 4 15 9 15 5 0 6 5 2 11 -4 8 -9 7 -15 -2 -8 -12 -11 -11 -19 1 -5
8 -10 11 -10 6 0 -5 -9 -1 -20 9 -11 10 -20 14 -20 10 0 -5 -7 0 -16 11 -15
18 -15 18 -5 -3 7 -14 8 -24 1 -28 -5 -3 -10 -1 -10 6 0 7 -3 9 -6 6 -4 -4 1
-18 11 -33 11 -17 12 -24 4 -18 -10 5 -9 0 2 -16 10 -14 24 -24 33 -22 9 2 16
-4 16 -12 0 -8 5 -18 12 -22 7 -5 8 -3 3 7 -5 8 6 -1 24 -19 17 -18 36 -44 41
-57 5 -14 17 -25 25 -25 9 0 13 -5 10 -10 -4 -6 -11 -8 -16 -5 -5 3 -6 -1 -3
-9 7 -18 -7 -21 -22 -6 -6 6 -15 5 -24 -1 -12 -9 -11 -10 4 -5 15 5 17 4 8 -7
-9 -10 -7 -19 9 -35 11 -12 25 -22 31 -22 6 0 5 -7 -3 -17 -8 -9 -9 -14 -3
-10 7 4 15 0 18 -9 3 -8 9 -13 14 -10 10 6 8 -42 -3 -51 -4 -5 -5 -2 -1 5 4 6
2 12 -4 12 -6 0 -8 6 -4 13 5 9 4 9 -6 0 -11 -11 -11 -17 0 -37 7 -14 17 -23
22 -20 4 3 8 0 8 -5 0 -6 -5 -11 -10 -11 -7 0 -6 -8 1 -22 7 -13 12 -24 11
-25 -6 -9 0 -23 7 -19 11 7 8 -21 -4 -31 -4 -4 -5 -2 -1 5 5 9 1 15 -13 19
-11 3 -18 9 -15 14 3 5 -2 9 -11 9 -10 0 -13 5 -9 12 4 6 3 8 -3 5 -6 -4 -9
-18 -8 -32 2 -16 -2 -25 -10 -25 -9 0 -12 -8 -9 -22 15 -63 15 -109 0 -124 -9
-8 -16 -11 -16 -5 0 6 -6 10 -12 9 -7 -2 -12 3 -10 10 1 8 -1 11 -6 9 -4 -3
-9 -20 -10 -39 -1 -21 1 -28 7 -20 6 11 9 10 13 -5 5 -18 -3 -19 -116 -19
-118 0 -124 -1 -261 -48 -251 -86 -489 -217 -586 -324 -91 -99 -126 -212 -66
-212 17 0 26 9 35 34 15 40 121 143 200 194 145 92 400 202 607 261 109 32
215 45 215 27 0 -6 5 -4 10 4 8 12 10 10 12 -10 1 -14 2 -32 3 -40 0 -8 4 -21
8 -28 5 -6 5 -18 1 -24 -6 -10 -5 -10 7 -1 12 10 15 8 17 -13 1 -13 -3 -24 -9
-24 -8 0 -8 -4 0 -13 6 -8 8 -17 5 -20 -11 -11 -14 -66 -4 -72 6 -4 7 1 3 11
-5 12 -3 15 6 9 10 -6 11 -3 2 14 -10 17 -9 21 4 21 22 0 31 -29 16 -52 -10
-16 -10 -19 1 -13 10 6 10 5 2 -4 -9 -10 -17 -10 -32 -2 -15 8 -21 7 -25 -3
-3 -7 0 -19 6 -25 8 -8 8 -14 -2 -23 -10 -11 -11 -9 -6 7 5 15 4 17 -3 6 -12
-17 -5 -41 12 -41 6 0 4 -5 -4 -10 -13 -9 -13 -11 0 -20 13 -8 13 -10 -2 -10
-9 0 -19 -4 -23 -9 -3 -6 4 -8 15 -6 12 2 20 -1 20 -10 0 -9 -6 -12 -15 -9
-17 7 -20 -7 -5 -22 15 -15 0 -54 -22 -54 -10 0 -16 -4 -13 -10 9 -14 -8 -12
-25 3 -12 10 -12 9 -2 -5 15 -19 3 -31 -18 -17 -20 12 -43 11 -35 -1 4 -6 10
-8 15 -5 5 3 17 -3 27 -14 43 -47 45 -51 33 -65 -8 -11 -8 -15 2 -19 8 -3 6
-6 -6 -6 -13 -1 -16 -6 -12 -17 6 -14 4 -15 -10 -3 -13 11 -15 11 -12 -3 1 -9
0 -16 -4 -15 -4 1 -13 -5 -20 -14 -7 -9 -33 -21 -57 -28 -58 -17 -154 -64
-196 -95 -84 -64 -150 -214 -185 -422 -33 -191 -24 -291 30 -349 10 -11 20
-33 22 -50 3 -25 8 -30 34 -33 18 -2 49 6 70 17 197 103 437 171 654 183 44 3
45 4 82 72 50 92 95 145 161 190 98 68 180 58 251 -29 27 -32 45 -45 74 -50
80 -13 162 -84 162 -141 0 -47 21 -74 97 -128 43 -30 95 -71 117 -90 21 -19
68 -47 104 -61 37 -15 73 -36 81 -47 7 -11 66 -45 130 -75 86 -41 303 -156
408 -218 1 0 5 -28 8 -61 13 -132 16 -146 30 -140 10 3 12 0 8 -12 -5 -14 -3
-13 9 2 8 10 20 16 26 12 7 -4 12 -2 12 3 0 6 7 11 15 11 27 0 61 28 93 78 28
43 30 54 27 112 l-4 65 12 -58 c7 -32 15 -58 20 -58 4 1 31 15 61 31 l54 31
-19 86 c-64 291 -136 454 -294 665 -52 70 -95 129 -95 132 0 10 67 26 115 26
103 0 287 62 370 125 19 15 46 51 60 80 23 45 26 67 26 143 0 103 -12 134
-108 276 l-55 81 5 66 c11 133 61 284 109 324 36 30 94 48 118 35 10 -5 21 -6
24 -2 4 4 43 7 86 7 91 0 120 17 120 70 0 42 -27 65 -86 73 -38 6 -50 12 -52
27 -6 29 -36 59 -132 132 -101 77 -219 136 -315 160 -38 10 -71 18 -73 19 -2
1 19 35 46 76 26 41 56 101 67 133 45 146 -27 387 -180 599 -28 39 -82 114
-120 166 -78 108 -156 254 -185 347 -26 86 -74 435 -65 481 9 49 78 115 173
166 63 35 70 41 54 52 -9 7 -14 15 -10 19 3 4 73 29 155 56 168 56 224 91 284
176 107 154 169 597 116 827 -49 209 -167 403 -402 667 -96 107 -304 307 -393
379 -24 19 -50 49 -57 67 -10 24 -23 34 -52 42 -21 6 -47 17 -58 25 -29 22
-41 19 -20 -4 17 -18 16 -21 -16 -61 -26 -33 -35 -55 -41 -105 -8 -68 -45
-154 -87 -204 l-26 -31 -65 22 c-39 13 -87 40 -120 67 -30 24 -120 83 -200
130 -185 110 -203 127 -224 219 -17 77 -21 170 -7 191 10 16 94 42 135 42 17
0 51 -7 75 -16 39 -13 46 -13 67 1 20 13 22 19 14 36 -9 16 -6 24 20 45 39 33
41 76 5 100 -24 16 -31 15 -112 -1 l-86 -17 -76 36 c-196 91 -357 86 -484 -18
l-53 -43 -86 81 c-48 45 -112 97 -144 116 -53 32 -367 144 -478 171 -27 6 -75
22 -106 35 -73 29 -171 38 -300 25 -87 -8 -109 -8 -127 5 -28 18 -99 123 -188
279 -117 205 -149 232 -257 222 -79 -7 -219 -76 -325 -161 -46 -36 -87 -66
-92 -66 -14 0 -86 97 -164 221 -126 199 -253 309 -423 365 -70 23 -107 29
-174 29 -104 0 -127 -11 -230 -110 -86 -83 -123 -105 -178 -105 -44 0 -73 30
-91 96 -13 48 -65 99 -146 144 -33 18 -67 39 -75 46 -25 20 -295 46 -358 35
-63 -13 -79 -21 -112 -56 -25 -26 -25 -30 -31 -238 -5 -184 -9 -221 -28 -282
-35 -106 -110 -244 -163 -299 -44 -46 -49 -48 -85 -41 -50 9 -87 29 -106 58
-8 13 -25 79 -36 146 -11 67 -32 149 -45 182 -60 150 -161 269 -272 322 -63
29 -77 32 -164 32 -115 -1 -187 -22 -226 -67 -20 -25 -27 -29 -35 -17 -14 23
-11 27 30 49 80 40 102 103 56 159 -50 59 -337 187 -517 231 -113 28 -307 35
-413 15z m5615 -5359 c0 -2 -16 3 -34 12 -19 9 -33 19 -30 24 5 7 64 -27 64
-36z m-6707 -32 c-4 -11 -8 -12 -20 -3 -11 10 -11 14 -1 20 17 10 28 2 21 -17z
m-93 -60 c0 -8 -19 -13 -24 -6 -3 5 1 9 9 9 8 0 15 -2 15 -3z m10 -49 c0 -8
-4 -15 -8 -15 -5 0 -9 7 -9 15 0 8 4 15 9 15 4 0 8 -7 8 -15z m6955 5 c3 -5 1
-10 -4 -10 -6 0 -11 5 -11 10 0 6 2 10 4 10 3 0 8 -4 11 -10z m-7018 -45 c0
-8 -4 -12 -9 -9 -5 3 -6 10 -3 15 9 13 12 11 12 -6z m40 9 c-3 -3 -12 -4 -19
-1 -8 3 -5 6 6 6 11 1 17 -2 13 -5z m-26 -62 c-7 -2 -18 1 -23 6 -8 8 -4 9 13
5 13 -4 18 -8 10 -11z m7099 -37 c0 -7 8 -19 18 -24 9 -6 13 -11 9 -11 -14 0
-57 37 -50 44 11 11 23 7 23 -9z m-7159 -22 c13 -16 12 -17 -3 -4 -14 11 -18
11 -18 1 0 -8 -3 -11 -6 -7 -5 5 3 27 10 27 2 0 10 -8 17 -17z m32 -38 c3 -6
-7 -11 -22 -12 -14 -1 -20 1 -13 4 6 2 10 8 8 12 -3 4 1 8 9 8 8 0 16 -5 18
-12z m-22 -32 c-11 -5 -11 -7 0 -15 12 -8 12 -9 0 -6 -22 6 -25 28 -4 27 12 0
14 -2 4 -6z m7179 -3 c0 -5 -2 -10 -4 -10 -3 0 -8 5 -11 10 -3 6 -1 10 4 10 6
0 11 -4 11 -10z m-7225 -40 c-2 -11 4 -27 13 -37 16 -16 16 -16 0 -10 -9 3
-19 1 -21 -6 -2 -7 -2 -2 -1 10 2 12 -2 23 -9 26 -9 3 -9 7 2 20 18 22 21 21
16 -3z m-31 -38 c3 -5 -1 -9 -9 -9 -8 0 -15 4 -15 9 0 4 4 8 9 8 6 0 12 -4 15
-8z m-147 -34 c-3 -8 -6 -5 -6 6 -1 11 2 17 5 13 3 -3 4 -12 1 -19z m93 7 c0
-8 -4 -15 -10 -15 -5 0 -7 7 -4 15 4 8 8 15 10 15 2 0 4 -7 4 -15z m-26 -47
c-5 -7 -1 -9 13 -6 13 3 20 0 20 -9 0 -9 -7 -11 -20 -7 -14 4 -18 2 -14 -7 2
-8 11 -13 18 -11 11 3 12 1 1 -10 -11 -11 -14 -10 -22 2 -5 8 -10 10 -10 4 0
-7 -11 -14 -25 -16 -13 -3 -22 -1 -19 3 3 5 12 9 20 9 9 0 12 5 8 12 -4 7 -3
8 4 4 8 -4 12 0 12 12 0 10 3 22 7 25 10 11 15 8 7 -5z m-128 -79 c3 -6 17 -9
30 -6 13 2 24 1 24 -4 0 -4 10 -9 22 -11 12 -2 24 -10 26 -18 5 -13 3 -13 -11
-1 -21 17 -51 7 -43 -15 3 -9 2 -12 -5 -9 -6 4 -8 13 -5 20 7 19 -5 27 -21 14
-10 -9 -13 -8 -13 4 0 9 -8 21 -17 26 -10 6 -13 11 -6 11 6 0 15 -5 19 -11z
m7538 -14 c3 -8 1 -15 -4 -15 -6 0 -10 7 -10 15 0 8 2 15 4 15 2 0 6 -7 10
-15z m-7544 -15 c0 -5 -2 -10 -4 -10 -3 0 -8 5 -11 10 -3 6 -1 10 4 10 6 0 11
-4 11 -10z m7 -47 c-14 -4 -15 -8 -7 -18 7 -8 7 -16 2 -19 -12 -7 -25 22 -16
35 3 5 13 8 22 8 15 -1 15 -2 -1 -6z m-42 -12 c3 -5 2 -12 -3 -15 -5 -3 -9 1
-9 9 0 17 3 19 12 6z m100 -1 c-3 -5 -12 -7 -20 -3 -21 7 -19 13 6 13 11 0 18
-4 14 -10z m-48 -46 c-3 -3 -12 -4 -19 -1 -8 3 -5 6 6 6 11 1 17 -2 13 -5z
m-23 -35 c-8 -13 -21 -11 -27 5 -4 10 0 12 14 9 10 -3 16 -9 13 -14z m-68 -37
c-3 -3 0 -12 6 -21 10 -13 10 -14 -2 -4 -16 15 -23 46 -8 37 5 -3 7 -9 4 -12z
m84 -83 c-7 -11 -14 -18 -17 -15 -3 3 0 12 7 21 18 21 23 19 10 -6z m-71 -60
c-24 -15 -30 -10 -11 9 9 10 19 14 21 9 2 -5 -3 -13 -10 -18z m16 -37 c5 0 11
-6 14 -13 2 -8 -2 -10 -14 -5 -10 3 -23 2 -30 -4 -9 -8 -15 -8 -20 0 -3 5 -2
10 4 10 6 0 8 7 4 16 -5 13 -3 14 13 6 10 -5 23 -10 29 -10z m-56 -51 c8 -14
7 -22 -4 -31 -12 -10 -13 -8 -10 10 3 16 0 20 -10 16 -8 -3 -17 0 -21 6 -4 6
-3 8 4 4 6 -3 13 -2 17 4 9 14 13 13 24 -9z m-58 -74 c2 0 14 5 27 12 12 6 21
7 20 2 -2 -5 6 -17 17 -26 19 -16 18 -16 -8 0 -38 22 -41 16 -10 -20 14 -16
22 -24 19 -17 -4 7 -1 12 8 12 8 0 17 6 19 13 3 7 6 6 6 -5 1 -9 -4 -20 -10
-23 -7 -5 -4 -14 8 -28 18 -20 18 -20 -9 -3 -20 13 -31 15 -46 7 -16 -8 -21
-7 -26 5 -3 8 1 17 9 20 8 4 15 10 15 16 0 5 -5 6 -12 2 -7 -4 -8 -3 -4 4 4 8
-3 16 -18 22 -14 5 -26 15 -26 22 0 10 2 10 9 0 4 -8 10 -14 12 -15z m-9 -24
c-6 -2 -9 -10 -6 -15 4 -7 2 -8 -5 -4 -13 9 -5 26 12 25 9 0 8 -2 -1 -6z
m7648 -193 c0 -5 -2 -10 -4 -10 -3 0 -8 5 -11 10 -3 6 -1 10 4 10 6 0 11 -4
11 -10z m-7630 -55 c10 -12 9 -15 -4 -15 -10 0 -15 4 -12 9 4 5 0 12 -6 14 -8
4 -9 6 -2 6 6 1 17 -6 24 -14z m-80 -69 c0 -3 -4 -8 -10 -11 -5 -3 -10 -1 -10
4 0 6 5 11 10 11 6 0 10 -2 10 -4z m70 -25 c0 -5 3 -16 6 -25 4 -12 0 -16 -15
-16 -12 0 -21 5 -21 11 0 5 -4 8 -8 5 -5 -3 -9 1 -9 8 0 8 8 11 20 8 14 -3 18
-1 13 6 -4 7 -2 12 3 12 6 0 11 -4 11 -9z m1 -65 c5 3 9 3 9 0 0 -3 -9 -10
-19 -15 -17 -9 -18 -8 -13 11 3 13 7 17 10 10 2 -7 8 -10 13 -6z m-94 -28 c-3
-8 -6 -5 -6 6 -1 11 2 17 5 13 3 -3 4 -12 1 -19z m33 -18 c6 -11 8 -20 6 -20
-3 0 -10 9 -16 20 -6 11 -8 20 -6 20 3 0 10 -9 16 -20z m-13 -42 c-3 -8 -6 -5
-6 6 -1 11 2 17 5 13 3 -3 4 -12 1 -19z m-22 -7 c3 -5 0 -13 -6 -17 -7 -4 -9
-3 -5 4 3 5 0 13 -6 15 -9 4 -10 6 -1 6 6 1 14 -3 18 -8z m-109 -57 c2 -12 -1
-13 -12 -3 -7 6 -11 16 -8 21 7 11 17 3 20 -18z m84 6 c0 -5 -2 -10 -4 -10 -3
0 -8 5 -11 10 -3 6 -1 10 4 10 6 0 11 -4 11 -10z m-24 -137 c-9 -10 -35 -13
-40 -4 -3 4 7 8 21 9 15 1 23 -1 19 -5z m6259 -1723 c-3 -5 -1 -10 6 -10 7 0
10 -3 6 -6 -3 -4 -14 -3 -24 0 -15 6 -15 8 -3 16 19 12 23 12 15 0z m-157 -40
c-7 -11 -15 -15 -17 -9 -2 6 3 15 10 20 20 12 21 11 7 -11z m509 -50 c-5 -31
-13 -32 -12 -1 0 16 3 27 7 25 4 -3 6 -14 5 -24z m371 -350 c53 -63 122 -148
152 -188 30 -40 57 -67 59 -60 2 7 -1 14 -8 16 -6 2 -9 8 -5 13 3 5 0 9 -6 9
-6 0 -8 5 -5 10 3 6 1 10 -5 10 -6 0 -8 5 -5 10 3 6 1 10 -4 10 -6 0 -11 5
-11 11 0 5 6 7 13 3 8 -5 7 -2 -2 10 -8 9 -14 32 -13 51 1 19 -2 35 -6 35 -4
0 -8 10 -8 23 -1 12 -4 49 -6 82 -2 33 -1 77 3 98 3 20 2 37 -2 37 -5 0 -9 5
-9 10 0 45 133 -93 347 -360 153 -189 426 -596 372 -553 -9 7 -18 11 -21 8 -7
-7 -75 22 -83 35 -3 5 -17 10 -29 10 -13 0 -29 7 -36 15 -7 8 -16 12 -21 9 -5
-3 -9 0 -9 5 0 6 -3 10 -7 10 -20 -3 -34 2 -29 10 4 5 -4 7 -16 4 -19 -4 -20
-3 -8 6 12 9 11 11 -7 11 -13 0 -23 4 -23 10 0 5 -5 9 -12 7 -7 -1 -12 5 -13
13 0 9 -8 14 -19 12 -10 -2 -15 1 -12 6 6 9 -14 22 -42 28 -23 4 -51 35 -45
50 3 10 0 12 -10 8 -8 -3 -18 0 -22 5 -3 6 -11 8 -17 5 -7 -4 -8 -2 -4 4 3 6
-1 17 -10 24 -39 32 -63 61 -57 71 3 6 1 7 -5 3 -8 -5 49 -97 161 -264 201
-299 299 -466 442 -757 218 -443 326 -744 398 -1115 27 -136 30 -160 17 -160
-7 0 -10 -7 -7 -15 4 -8 2 -17 -3 -20 -6 -4 -10 1 -10 11 0 13 -3 14 -15 4
-12 -10 -15 -9 -15 5 0 10 -3 15 -7 12 -3 -4 -17 0 -29 8 -21 13 -24 13 -33
-3 -6 -9 -11 -13 -11 -8 0 5 -10 1 -22 -10 -21 -17 -22 -17 -7 0 13 13 15 26
9 46 -5 16 -6 31 -2 34 9 10 -18 7 -39 -5 -17 -9 -19 -7 -15 16 3 15 1 23 -5
20 -5 -4 -7 -10 -4 -15 3 -4 -3 -11 -12 -14 -15 -6 -15 -8 -3 -16 10 -6 11
-10 3 -10 -13 0 -39 40 -26 41 4 0 -2 4 -15 10 -15 5 -21 13 -16 21 4 7 -2 4
-15 -6 -16 -15 -24 -17 -33 -8 -8 8 -15 9 -25 1 -9 -9 -13 -8 -13 0 0 7 -4 9
-10 6 -5 -3 -10 1 -10 11 0 13 -3 14 -13 5 -19 -15 -30 -1 -14 17 9 13 9 14 0
8 -7 -4 -13 -2 -13 3 0 6 10 12 23 12 l22 2 -22 4 c-13 2 -23 10 -23 16 0 8
-3 7 -9 -2 -7 -11 -10 -9 -16 8 -3 11 -11 21 -16 21 -6 0 -7 -5 -3 -12 4 -6 3
-9 -2 -6 -25 14 -51 21 -71 19 -13 -1 -23 3 -23 9 0 6 4 9 9 5 5 -3 12 -2 15
3 2 4 -5 9 -16 9 -12 1 -28 10 -37 19 -9 9 -10 14 -3 10 6 -4 12 -2 12 3 0 10
-14 15 -34 12 -5 -1 -6 5 -3 13 3 8 -1 17 -10 20 -11 5 -14 2 -9 -10 5 -14 4
-15 -8 -5 -8 7 -20 10 -25 7 -5 -4 -12 -2 -16 4 -3 6 1 13 9 16 9 3 16 10 16
15 0 4 -7 6 -15 3 -8 -4 -15 -2 -15 4 0 5 -12 8 -26 6 -16 -1 -24 2 -21 10 3
8 -8 11 -35 9 -34 -2 -38 0 -27 13 10 12 9 13 -4 8 -9 -3 -30 1 -46 9 -22 11
-31 12 -35 3 -2 -6 -5 -3 -5 8 -1 12 -6 16 -15 13 -11 -4 -13 -1 -9 11 6 15 5
15 -10 3 -17 -13 -18 -12 -21 21 -1 6 7 12 17 14 11 1 22 6 25 10 4 4 0 5 -8
2 -8 -3 -21 4 -28 16 -13 21 -13 21 -9 -2 3 -12 1 -20 -3 -17 -5 3 -10 2 -13
-2 -2 -5 -2 -2 0 6 2 8 -1 17 -7 21 -6 4 -12 21 -12 38 -1 18 -4 32 -8 32 -3
0 -15 7 -26 15 -16 13 -16 14 -1 9 12 -4 17 -1 17 11 0 9 -4 14 -9 10 -5 -3
-13 0 -17 6 -5 8 -3 9 6 4 10 -6 12 -4 7 9 -4 10 -7 22 -7 27 0 5 -8 9 -18 9
-10 0 -19 7 -19 15 0 8 6 15 14 15 8 0 5 8 -9 23 -13 12 -27 21 -32 19 -5 -2
-4 3 3 12 8 10 9 16 1 21 -5 3 -10 0 -10 -7 0 -10 -3 -9 -9 2 -6 8 -7 18 -5
22 5 7 -11 12 -29 9 -5 -1 -6 3 -2 9 3 5 -2 10 -12 10 -15 0 -16 2 -3 10 12 8
10 10 -10 11 -14 1 -28 1 -32 0 -9 -1 -10 3 -13 41 -1 15 2 25 6 22 15 -9 10
6 -16 44 -20 29 -25 32 -26 17 0 -20 0 -20 -8 0 -5 12 -4 23 3 27 8 5 7 8 -2
8 -7 0 -10 5 -7 10 4 6 12 8 18 4 7 -3 5 0 -4 8 -9 7 -14 19 -11 27 3 8 0 11
-7 7 -7 -5 -11 2 -11 18 0 13 -3 31 -6 40 -5 12 0 16 17 16 14 0 19 4 13 8
-12 8 -26 39 -29 65 -1 11 -6 22 -11 25 -13 10 -11 46 3 55 13 8 7 34 -14 55
-7 8 -10 18 -7 24 4 7 2 8 -4 4 -7 -4 -12 -2 -12 3 0 6 -7 11 -15 11 -8 0 -15
9 -15 21 0 11 -4 17 -10 14 -5 -3 -12 6 -16 20 -3 14 -10 25 -16 25 -5 0 -7 4
-3 9 3 5 1 12 -5 16 -6 4 -8 10 -5 15 3 5 0 12 -6 16 -7 4 -9 3 -5 -4 3 -6 2
-13 -4 -17 -5 -3 -10 2 -10 12 0 11 -6 28 -14 38 -16 22 -11 46 8 39 7 -3 13
2 13 11 0 12 -7 15 -26 12 l-25 -5 25 19 c20 16 21 19 6 19 -10 0 -15 5 -12
10 5 8 11 7 21 -1 7 -6 12 -14 10 -18 -2 -3 3 -13 12 -20 14 -13 15 -12 10 7
-4 12 -2 25 4 28 7 4 7 9 -1 13 -17 11 -39 74 -34 104 4 27 -11 38 -20 15 -4
-9 -6 -8 -6 2 -1 9 4 21 11 28 9 9 9 12 -2 12 -7 0 -11 3 -7 6 3 3 0 25 -7 49
-13 41 -13 42 8 38 20 -3 20 -3 -1 8 -24 12 -31 29 -13 29 6 0 10 -4 10 -10 0
-22 15 -8 16 15 1 14 -2 25 -7 25 -5 0 -9 -5 -9 -11 0 -5 -5 -7 -11 -3 -8 4
-5 11 8 18 11 6 18 17 16 24 -3 6 1 12 9 12 9 1 7 4 -4 10 -9 6 -15 19 -13 30
3 13 -1 17 -11 13 -10 -4 -12 0 -7 13 4 11 3 15 -5 10 -6 -3 -14 -2 -17 4 -4
6 -2 9 3 8 6 -2 10 2 10 7 0 6 -4 9 -9 7 -5 -1 -2 9 7 23 17 26 7 34 -15 13
-10 -11 -11 -10 -6 5 4 9 10 17 14 17 4 0 7 9 8 19 1 13 -6 21 -20 23 -12 2
-21 9 -19 16 3 16 -10 15 -28 0 -12 -11 -12 -10 -1 4 7 9 10 22 7 27 -4 5 -2
12 4 16 5 3 10 14 9 23 0 14 -2 14 -8 -2 -7 -19 -8 -18 -14 4 -4 14 -1 28 6
33 8 6 7 7 -5 4 -16 -6 -48 21 -48 39 0 5 4 3 9 -4 7 -11 9 -11 14 2 4 9 1 15
-6 13 -7 -1 -12 5 -12 13 0 8 -9 21 -20 28 -19 13 -19 13 -1 7 20 -6 20 -6 0
16 -10 12 -13 19 -6 15 19 -12 14 12 -7 26 -23 17 -26 28 -9 39 11 7 11 9 -1
9 -11 0 -11 3 0 17 12 15 12 16 -1 8 -12 -6 -13 -5 -2 6 17 19 15 39 -5 40
-11 0 -13 3 -5 6 6 2 12 9 12 14 0 6 -3 8 -7 6 -5 -3 -15 10 -24 28 -12 25
-12 32 -2 28 7 -3 13 -9 13 -15 0 -5 5 -6 11 -2 6 3 7 9 3 13 -18 13 -32 49
-23 58 11 11 13 48 5 81 -3 14 2 35 12 50 9 14 12 23 5 19 -6 -4 -14 -3 -17 2
-4 5 -2 12 4 16 5 3 8 21 6 40 -2 18 -2 36 2 39 8 9 235 -227 350 -364z
m-1088 328 c0 -10 -2 -18 -5 -18 -2 0 -9 8 -14 18 -8 14 -6 19 5 19 7 0 14 -9
14 -19z m-7096 -77 c3 -5 -1 -11 -9 -15 -22 -8 -20 -47 3 -39 10 4 14 2 9 -3
-10 -11 -58 -13 -51 -3 2 4 -2 9 -8 11 -8 3 -4 9 10 17 12 6 22 18 22 26 0 16
16 20 24 6z m60 -48 c17 -21 17 -21 -1 -17 -10 3 -20 14 -20 26 -1 11 -1 19 0
17 1 -2 10 -14 21 -26z m83 -65 c9 -10 12 -18 6 -18 -6 0 -16 7 -23 15 -7 8
-17 12 -23 8 -6 -4 -8 2 -4 18 5 22 5 22 -7 7 -19 -26 -26 -22 -13 7 l12 25
17 -22 c10 -13 25 -31 35 -40z m-87 38 c0 -2 -7 -7 -16 -10 -8 -3 -12 -2 -9 4
6 10 25 14 25 6z m6910 -16 c0 -5 -2 -10 -4 -10 -3 0 -8 5 -11 10 -3 6 -1 10
4 10 6 0 11 -4 11 -10z m-35 -39 c3 -5 2 -12 -3 -15 -5 -3 -9 1 -9 9 0 17 3
19 12 6z m45 -17 c0 -8 -19 -13 -24 -6 -3 5 1 9 9 9 8 0 15 -2 15 -3z m-6867
-24 c3 -11 1 -18 -4 -14 -5 3 -9 12 -9 20 0 20 7 17 13 -6z m47 -14 c0 -11
-19 -15 -25 -6 -3 5 1 10 9 10 9 0 16 -2 16 -4z m6780 -26 c0 -5 -5 -10 -11
-10 -5 0 -7 5 -4 10 3 6 8 10 11 10 2 0 4 -4 4 -10z m-93 -47 c-4 -3 -2 -12 3
-18 14 -17 2 -45 -16 -38 -12 4 -12 7 2 18 12 8 14 14 6 19 -15 9 -15 26 0 26
6 0 8 -3 5 -7z m29 -82 c-6 -9 -46 -22 -46 -15 0 3 10 9 23 14 29 11 29 11 23
1z m-39 -91 c-1 -10 -5 -16 -9 -14 -5 3 -6 9 -3 14 3 5 1 11 -5 15 -5 3 -10 1
-10 -6 0 -7 -3 -10 -6 -6 -3 3 -3 10 0 16 10 16 35 2 33 -19z m-6920 -87 c-4
-3 0 -15 10 -25 25 -28 10 -22 -17 7 -21 22 -22 25 -5 25 10 0 15 -3 12 -7z
m6935 0 c-6 -2 -10 -9 -7 -14 4 -5 -1 -6 -10 -2 -13 5 -14 7 -3 14 7 5 18 8
23 8 6 0 4 -3 -3 -6z m-6745 -18 c0 -8 -4 -12 -9 -9 -4 3 -8 9 -8 15 0 5 4 9
8 9 5 0 9 -7 9 -15z m43 9 c0 -8 -19 -13 -24 -6 -3 5 1 9 9 9 8 0 15 -2 15 -3z
m-175 -13 c3 -5 2 -12 -3 -15 -5 -3 -9 1 -9 9 0 17 3 19 12 6z m209 1 c3 -5
-1 -9 -9 -9 -8 0 -12 4 -9 9 3 4 7 8 9 8 2 0 6 -4 9 -8z m7710 -8 c3 -8 2 -12
-4 -9 -6 3 -10 10 -10 16 0 14 7 11 14 -7z m-7824 -4 c0 -5 -2 -10 -4 -10 -3
0 -8 5 -11 10 -3 6 -1 10 4 10 6 0 11 -4 11 -10z m7858 -31 c-2 -6 -8 -10 -13
-10 -5 0 -11 4 -13 10 -2 6 4 11 13 11 9 0 15 -5 13 -11z m-1072 -41 c3 -4 -1
-5 -10 -4 -8 1 -18 5 -22 8 -3 4 1 5 10 4 8 -1 18 -5 22 -8z m-41 -68 c3 -5 1
-10 -4 -10 -6 0 -11 5 -11 10 0 6 2 10 4 10 3 0 8 -4 11 -10z m1172 -137 c-4
-3 -2 -12 4 -20 7 -8 8 -13 1 -13 -12 0 -23 26 -15 34 4 3 9 6 11 6 3 0 2 -3
-1 -7z m-1143 -15 c-3 -4 -9 -8 -15 -8 -5 0 -9 4 -9 8 0 5 7 9 15 9 8 0 12 -4
9 -9z m1186 -34 c0 -8 -4 -14 -9 -14 -6 0 -9 9 -8 19 1 22 17 18 17 -5z
m-1176 -16 c-3 -4 -11 -8 -17 -7 -9 0 -9 2 0 5 7 3 9 13 6 22 -4 14 -3 14 5 2
6 -8 8 -18 6 -22z m16 -11 c0 -2 -11 -17 -23 -35 l-24 -32 0 33 c-1 24 1 27 6
12 8 -19 8 -19 20 3 10 19 21 29 21 19z m-7399 -71 c19 -8 43 -23 54 -33 19
-18 41 -31 110 -64 37 -18 48 -59 16 -59 -39 0 -124 39 -172 80 -27 23 -69 50
-94 61 -25 11 -45 22 -45 24 0 11 100 4 131 -9z m7389 -12 c0 -8 -19 -13 -24
-6 -3 5 1 9 9 9 8 0 15 -2 15 -3z m-6680 -14 c0 -5 -5 -10 -11 -10 -5 0 -7 5
-4 10 3 6 8 10 11 10 2 0 4 -4 4 -10z m6505 -10 c-3 -5 -11 -10 -16 -10 -6 0
-7 5 -4 10 3 6 11 10 16 10 6 0 7 -4 4 -10z m205 -25 c0 -1 -7 -8 -16 -15 -12
-11 -15 -11 -12 1 2 8 -3 13 -10 11 -8 -1 -11 2 -8 7 5 8 46 4 46 -4z m-6663
-32 c-4 -3 -1 -13 6 -22 11 -14 10 -14 -5 -2 -16 12 -16 31 -1 31 4 0 3 -3 0
-7z m7796 -139 c7 1 9 1 4 -1 -4 -3 -5 -9 -2 -14 4 -5 -1 -6 -9 -3 -10 4 -15
17 -15 33 2 22 2 23 6 4 2 -12 10 -21 16 -19z m1196 -71 c12 -24 19 -43 16
-43 -9 0 -45 64 -45 79 0 19 3 14 29 -36z m1568 -88 c0 -8 -4 -12 -9 -9 -5 3
-6 10 -3 15 9 13 12 11 12 -6z m-3967 -121 c0 -14 -12 -19 -23 -8 -9 9 4 35
14 28 5 -3 9 -12 9 -20z m25 -23 c3 -5 1 -12 -5 -16 -5 -3 -10 1 -10 9 0 18 6
21 15 7z m2 -183 c-3 -7 -5 -2 -5 12 0 14 2 19 5 13 2 -7 2 -19 0 -25z m1358
13 c3 -5 2 -12 -3 -15 -5 -3 -9 1 -9 9 0 17 3 19 12 6z m-7121 -73 c-19 -21
-19 -21 3 -16 15 4 20 2 16 -8 -4 -10 -10 -11 -25 -3 -19 10 -19 11 -2 30 9
10 19 19 22 19 3 0 -3 -10 -14 -22z m7126 -3 c-7 -8 -8 -20 -4 -27 5 -9 4 -10
-4 -3 -13 12 -4 57 10 49 5 -3 4 -11 -2 -19z m-1292 -27 c-6 -16 -38 -23 -38
-9 0 6 7 7 17 4 11 -4 14 -3 9 5 -4 7 -2 12 4 12 7 0 10 -6 8 -12z m27 -48 c3
-5 2 -10 -4 -10 -5 0 -13 5 -16 10 -3 6 -2 10 4 10 5 0 13 -4 16 -10z m9 -66
c3 -8 2 -12 -4 -9 -6 3 -10 10 -10 16 0 14 7 11 14 -7z m-5611 -49 c-3 -9 -8
-14 -10 -11 -3 3 -2 9 2 15 9 16 15 13 8 -4z m6931 -11 c3 -8 2 -12 -4 -9 -6
3 -10 10 -10 16 0 14 7 11 14 -7z m-6900 -31 c-5 -5 -12 -12 -16 -18 -4 -6 -8
-2 -8 8 0 9 7 17 17 17 9 0 12 -3 7 -7z m37 -10 c7 -10 9 -15 5 -11 -5 4 -22
-2 -38 -14 l-30 -21 13 22 c8 11 20 21 27 21 7 0 10 5 7 10 -10 17 2 11 16 -7z
m5629 -43 c0 -5 -5 -10 -11 -10 -5 0 -7 5 -4 10 3 6 8 10 11 10 2 0 4 -4 4
-10z m-5593 -96 c-3 -3 -12 -4 -19 -1 -8 3 -5 6 6 6 11 1 17 -2 13 -5z m5561
-29 c-3 -3 -9 2 -12 12 -6 14 -5 15 5 6 7 -7 10 -15 7 -18z m1407 -15 c3 -5 2
-10 -4 -10 -5 0 -13 5 -16 10 -3 6 -2 10 4 10 5 0 13 -4 16 -10z m-1355 -40
c0 -5 -5 -10 -11 -10 -5 0 -7 5 -4 10 3 6 8 10 11 10 2 0 4 -4 4 -10z m3512
-62 c-7 -7 -12 -8 -12 -2 0 14 12 26 19 19 2 -3 -1 -11 -7 -17z m-3632 -22 c0
-3 -4 -8 -10 -11 -5 -3 -10 -1 -10 4 0 6 5 11 10 11 6 0 10 -2 10 -4z m157
-10 c-3 -7 -1 -18 4 -23 5 -5 1 -9 -11 -9 -23 0 -25 11 -7 31 16 18 21 19 14
1z m-5577 -6 c16 -11 15 -11 -17 -15 -14 -1 -20 2 -16 11 6 16 13 17 33 4z
m6965 -20 c-3 -5 -1 -10 6 -10 7 0 10 -3 6 -6 -3 -4 -14 -3 -24 0 -15 6 -15 8
-3 16 19 12 23 12 15 0z m-1593 -31 c5 -3 3 -9 -6 -12 -12 -5 -16 0 -15 21 0
16 3 21 6 12 3 -8 10 -18 15 -21z m169 14 c13 -16 12 -17 -3 -4 -17 13 -22 21
-14 21 2 0 10 -8 17 -17z m-601 -26 c-14 -6 -60 -28 -102 -49 -43 -21 -78 -36
-78 -33 0 8 181 95 194 94 6 0 0 -5 -14 -12z m-4900 -77 c6 -11 8 -20 6 -20
-3 0 -10 9 -16 20 -6 11 -8 20 -6 20 3 0 10 -9 16 -20z m6964 12 c3 -5 -1 -9
-9 -9 -8 0 -12 4 -9 9 3 4 7 8 9 8 2 0 6 -4 9 -8z m-2254 -25 c0 -7 -110 -77
-215 -137 -60 -35 -120 -69 -132 -78 -13 -8 -23 -12 -23 -9 0 10 160 115 260
169 107 59 110 60 110 55z m-4650 -58 c0 -18 -18 -9 -23 12 -4 16 -3 18 9 8 8
-6 14 -15 14 -20z m5305 -48 c-3 -6 -11 -8 -17 -5 -6 4 -5 9 3 15 16 10 23 4
14 -10z m1855 -11 c0 -5 -2 -10 -4 -10 -3 0 -8 5 -11 10 -3 6 -1 10 4 10 6 0
11 -4 11 -10z m-1862 -73 c7 -5 10 -13 7 -18 -10 -16 -32 -10 -38 10 -5 19 7
22 31 8z m19 -40 c0 -8 -6 -14 -14 -14 -9 0 -10 4 -2 14 6 7 12 13 14 13 1 0
2 -6 2 -13z m2088 -45 c-3 -3 -11 0 -18 7 -9 10 -8 11 6 5 10 -3 15 -9 12 -12z
m-2101 -47 c3 -9 12 -12 23 -8 14 5 13 2 -5 -17 -12 -13 -25 -20 -29 -17 -3 4
0 7 7 7 8 0 5 7 -8 19 -12 10 -19 21 -15 25 10 10 20 7 27 -9z m2300 -37 c-4
-6 -9 -6 -14 2 -5 9 -9 9 -14 1 -9 -14 -26 -14 -26 0 0 5 5 7 10 4 6 -3 13 1
16 10 5 12 10 13 20 4 8 -6 11 -16 8 -21z m-2254 -2 c0 -2 -7 -7 -16 -10 -8
-3 -12 -2 -9 4 6 10 25 14 25 6z m2360 -31 c0 -8 0 -18 0 -22 0 -5 -4 -9 -10
-9 -23 -3 -24 -5 -10 -14 9 -6 10 -10 3 -10 -20 0 -24 17 -7 30 8 7 13 19 10
27 -3 7 -1 13 4 13 6 0 10 -7 10 -15z m-2355 -10 c6 0 15 4 22 8 6 4 15 3 18
-3 4 -6 1 -9 -6 -8 -7 2 -15 -6 -18 -17 -6 -19 -31 -33 -31 -17 0 4 6 14 13
21 10 10 9 12 -2 9 -7 -2 -16 4 -18 12 -3 9 -1 11 4 5 4 -6 13 -10 18 -10z
m2310 -5 c3 -5 1 -10 -4 -10 -6 0 -11 5 -11 10 0 6 2 10 4 10 3 0 8 -4 11 -10z
m-2225 -50 c0 -5 -8 -10 -17 -10 -15 0 -16 2 -3 10 19 12 20 12 20 0z m-51
-38 c3 -1 -6 -1 -20 0 -26 3 -41 17 -32 31 3 4 15 0 26 -10 12 -10 24 -19 26
-21z m-4984 -132 c3 -5 -1 -10 -10 -10 -9 0 -13 5 -10 10 3 6 8 10 10 10 2 0
7 -4 10 -10z m88 -154 c18 -4 18 -4 -3 -3 -14 1 -25 8 -26 17 0 8 1 10 3 3 2
-6 14 -14 26 -17z m3137 -187 c-31 -107 -37 -265 -15 -365 9 -43 21 -88 27
-99 9 -20 9 -20 -6 -1 -41 52 -60 128 -60 251 -1 77 4 134 13 160 22 64 53
136 58 132 2 -3 -6 -38 -17 -78z m-256 -134 c-6 -33 -8 -35 -22 -21 -14 13
-13 18 2 41 22 34 29 27 20 -20z m-2709 25 c3 -5 2 -10 -4 -10 -5 0 -13 5 -16
10 -3 6 -2 10 4 10 5 0 13 -4 16 -10z m166 -227 c13 -16 12 -17 -3 -4 -17 13
-22 21 -14 21 2 0 10 -8 17 -17z m7743 -168 c-1 -55 -6 -111 -13 -125 -10 -22
-11 -19 -5 20 10 63 11 179 1 215 -6 27 -6 28 5 10 9 -13 13 -55 12 -120z
m-3991 -142 c-7 -2 -19 -2 -25 0 -7 3 -2 5 12 5 14 0 19 -2 13 -5z m44 1 c-3
-3 -12 -4 -19 -1 -8 3 -5 6 6 6 11 1 17 -2 13 -5z m-47 -18 c0 -3 -4 -8 -10
-11 -5 -3 -10 -1 -10 4 0 6 5 11 10 11 6 0 10 -2 10 -4z m-64 -50 c0 -14 -3
-23 -7 -20 -6 3 -6 22 0 42 3 10 7 -2 7 -22z m-3439 -88 c-3 -8 -6 -5 -6 6 -1
11 2 17 5 13 3 -3 4 -12 1 -19z m2098 -52 c54 -105 200 -301 292 -396 46 -46
83 -85 83 -86 0 -1 -14 0 -30 1 -26 2 -29 0 -18 -13 11 -13 10 -14 -8 -8 -14
4 -26 1 -34 -9 -7 -8 -20 -15 -29 -15 -13 0 -14 -2 -1 -9 8 -6 17 -8 21 -5 4
2 9 -3 12 -11 5 -12 2 -12 -21 -3 -15 7 -32 15 -37 19 -6 4 -20 7 -30 5 -16
-2 -20 -10 -18 -34 1 -24 -4 -35 -20 -43 -22 -10 -22 -10 -2 6 19 15 19 17 3
29 -19 14 -25 32 -8 21 6 -3 7 1 4 9 -7 19 -30 21 -40 4 -4 -7 -3 -8 4 -4 14
8 15 4 6 -18 -3 -9 -10 -13 -15 -10 -5 3 -6 -1 -3 -9 3 -8 0 -18 -7 -23 -8 -5
-10 -3 -4 6 6 10 4 12 -8 7 -10 -4 -20 0 -26 11 -6 9 -11 12 -11 7 0 -6 7 -21
16 -33 8 -12 11 -22 6 -22 -5 0 -17 10 -25 23 -13 18 -16 19 -16 5 -1 -10 -7
-18 -15 -18 -7 0 -16 -10 -19 -22 -4 -12 -9 -19 -13 -15 -4 4 -12 3 -18 -3 -7
-5 -17 -5 -26 1 -12 8 -11 9 5 7 14 -2 19 2 17 15 -2 9 2 17 8 17 6 0 8 4 5
10 -4 6 -11 5 -19 -3 -8 -6 -12 -15 -10 -18 2 -4 -6 -9 -18 -12 -19 -5 -20 -8
-7 -23 10 -13 11 -16 1 -10 -8 5 -19 1 -28 -10 -9 -11 -13 -14 -10 -9 2 6 -4
16 -14 23 -17 10 -20 9 -26 -13 -7 -29 -16 -31 -34 -10 -7 8 -18 15 -24 15 -6
0 -4 -5 4 -10 13 -8 12 -10 -5 -11 -11 -1 -30 0 -42 0 -11 1 -24 -2 -27 -8 -4
-6 1 -8 12 -6 11 2 19 -3 19 -11 0 -10 -4 -11 -10 -5 -7 7 -15 7 -24 0 -10 -9
-13 -7 -13 6 0 14 -3 15 -15 5 -15 -13 -59 -4 -50 10 3 5 0 12 -6 16 -8 5 -9
3 -4 -6 6 -10 3 -12 -13 -8 -31 8 -27 1 9 -21 18 -11 26 -22 20 -25 -6 -4 -11
-3 -11 3 0 5 -11 8 -25 6 -14 -1 -25 3 -26 9 0 6 -4 1 -9 -11 -8 -20 -13 -21
-36 -13 -25 10 -26 9 -13 -6 13 -16 12 -16 -10 -5 -13 7 -21 8 -17 3 3 -6 2
-14 -4 -17 -6 -4 -8 -16 -4 -27 5 -18 4 -19 -9 -7 -9 9 -12 18 -6 24 29 30
-12 34 -58 5 -18 -11 -33 -16 -33 -12 0 4 -4 0 -10 -8 -5 -9 -5 -19 2 -27 6
-8 8 -16 4 -20 -3 -3 -6 -1 -6 6 0 7 -5 9 -10 6 -6 -4 -9 -1 -8 5 2 6 -7 19
-19 27 -21 14 -23 14 -23 -1 0 -9 5 -16 10 -16 6 0 10 -8 10 -17 -1 -17 -1
-17 -11 0 -5 9 -18 17 -27 17 -14 0 -15 2 -2 10 12 7 10 9 -7 7 -12 0 -20 -4
-17 -8 2 -4 -6 -15 -18 -23 -17 -12 -20 -18 -10 -28 7 -7 12 -16 12 -20 0 -8
-10 -2 -44 29 -7 6 -18 8 -26 3 -9 -6 -7 -10 9 -15 11 -3 21 -11 21 -16 0 -6
5 -7 10 -4 6 3 10 1 10 -4 0 -17 -37 -13 -44 5 -4 9 -9 14 -13 10 -4 -3 -14 6
-24 20 -9 14 -19 21 -23 16 -3 -5 1 -12 9 -16 8 -3 15 -13 15 -22 0 -10 5 -14
15 -10 8 3 15 1 15 -4 0 -13 -16 -13 -42 1 -16 9 -19 8 -13 -2 6 -9 4 -11 -7
-6 -23 8 -31 -4 -12 -18 14 -10 14 -13 -3 -26 -16 -13 -17 -13 -4 3 12 16 11
18 -10 17 -13 -1 -31 0 -39 2 -8 2 -15 -3 -15 -11 0 -8 8 -14 18 -14 10 1 17
-5 17 -15 0 -19 31 -25 41 -8 4 5 7 -3 7 -18 0 -19 -4 -23 -11 -16 -14 14 -50
14 -42 1 3 -5 1 -10 -4 -10 -6 0 -11 -5 -11 -11 0 -7 10 -5 25 5 14 9 25 12
25 7 0 -5 -6 -12 -12 -14 -7 -3 1 -4 18 -2 26 3 34 -1 44 -23 12 -27 12 -27
-9 -8 -21 19 -21 19 -22 0 -1 -10 -1 -24 0 -31 1 -6 -3 -14 -9 -18 -6 -3 -7 0
-4 9 3 9 1 16 -5 16 -6 0 -10 3 -10 8 3 20 -2 32 -13 26 -7 -5 -8 -3 -4 5 6 8
2 11 -10 9 -13 -2 -18 2 -16 15 1 9 3 25 5 35 1 11 -4 17 -15 16 -10 -1 -18 2
-18 8 0 5 -4 7 -9 4 -5 -4 -8 2 -7 11 2 9 8 19 14 21 7 2 9 9 5 14 -4 7 2 9
16 5 19 -5 20 -3 9 11 -11 13 -11 14 1 7 10 -6 13 -4 9 6 -3 9 11 39 32 70 22
30 48 72 60 93 12 22 65 101 118 176 53 75 124 175 157 222 33 48 61 86 62 84
2 -1 -11 -42 -27 -92 -29 -87 -36 -124 -24 -124 6 0 105 80 250 202 62 52 135
137 207 240 33 48 62 86 64 85 1 -2 18 -34 38 -71z m1215 64 c0 -5 -5 -10 -11
-10 -5 0 -7 5 -4 10 3 6 8 10 11 10 2 0 4 -4 4 -10z m4030 -33 c0 -2 -12 -14
-27 -28 l-28 -24 24 28 c23 25 31 32 31 24z m-4055 -17 c3 -6 -1 -7 -9 -4 -18
7 -21 14 -7 14 6 0 13 -4 16 -10z m-3205 -160 c0 -5 -7 -7 -15 -4 -8 4 -15 8
-15 10 0 2 7 4 15 4 8 0 15 -4 15 -10z m10 -104 c0 -3 -4 -8 -10 -11 -5 -3
-10 -1 -10 4 0 6 5 11 10 11 6 0 10 -2 10 -4z m441 -263 c13 -16 12 -17 -3 -4
-10 7 -18 15 -18 17 0 8 8 3 21 -13z m52 6 c-8 -8 -16 -8 -30 0 -16 9 -14 10
12 11 21 0 26 -3 18 -11z m1827 -10 c0 -5 6 -7 13 -3 8 5 8 2 -2 -9 -7 -9 -19
-17 -25 -17 -6 0 -4 5 4 10 10 6 11 10 3 10 -7 0 -13 5 -13 10 0 6 5 10 10 10
6 0 10 -5 10 -11z m-1827 -16 c-7 -2 -19 -2 -25 0 -7 3 -2 5 12 5 14 0 19 -2
13 -5z m1662 -53 c-3 -5 -12 -10 -18 -10 -7 0 -6 4 3 10 19 12 23 12 15 0z
m65 0 c0 -5 -5 -10 -11 -10 -5 0 -7 5 -4 10 3 6 8 10 11 10 2 0 4 -4 4 -10z
m-2020 -44 c0 -3 -4 -8 -10 -11 -5 -3 -10 -1 -10 4 0 6 5 11 10 11 6 0 10 -2
10 -4z m1834 -26 c-6 -6 -10 -3 -10 10 0 13 4 16 10 10 7 -7 7 -13 0 -20z
m-1789 0 c8 13 25 13 25 0 0 -5 -7 -10 -16 -10 -9 0 -12 -5 -8 -12 4 -7 -3 -4
-16 7 l-23 20 7 -20 c5 -15 4 -17 -5 -8 -16 16 -2 38 16 23 9 -8 15 -8 20 0z
m285 -15 c7 -9 8 -15 2 -15 -5 0 -12 7 -16 15 -3 8 -4 15 -2 15 2 0 9 -7 16
-15z m1337 -27 c-3 -8 -6 -5 -6 6 -1 11 2 17 5 13 3 -3 4 -12 1 -19z m-1310
-14 c0 -7 -5 -15 -12 -17 -6 -3 -11 3 -11 12 0 10 5 18 11 18 7 0 12 -6 12
-13z m1276 -8 c4 -10 1 -13 -9 -9 -15 6 -19 23 -5 23 5 0 11 -7 14 -14z m-133
-37 c0 -15 -18 -19 -23 -6 -3 8 1 14 9 14 8 0 14 -4 14 -8z m-97 -13 c8 -19
-18 -42 -29 -25 -4 8 -3 9 4 5 8 -5 12 0 12 13 0 24 6 27 13 7z m-149 -24 c2
-4 -5 -9 -17 -9 -17 -2 -19 0 -7 7 18 12 18 12 24 2z m86 4 c0 -2 -7 -6 -15
-10 -8 -3 -15 -1 -15 4 0 6 7 10 15 10 8 0 15 -2 15 -4z m-984 -62 c-9 -6 -13
-14 -9 -17 3 -4 -2 -7 -12 -7 -17 0 -17 1 -2 18 18 19 23 37 9 28 -5 -3 -9 1
-9 9 0 12 4 12 19 -2 17 -15 18 -19 4 -29z m728 4 c-5 -8 -2 -9 9 -5 10 4 16
2 14 -6 -1 -7 4 -11 11 -9 17 3 15 -3 -5 -19 -9 -8 -14 -9 -10 -2 4 7 -1 14
-13 18 -21 7 -28 35 -9 35 5 0 7 -5 3 -12z m6 -58 c0 -5 -5 -10 -11 -10 -5 0
-7 5 -4 10 3 6 8 10 11 10 2 0 4 -4 4 -10z m-124 -25 c-20 -15 -20 -24 0 -46
10 -11 12 -19 5 -24 -14 -8 -33 42 -26 65 3 9 13 17 21 17 15 0 15 -1 0 -12z
m54 3 c0 -5 5 -6 10 -3 6 3 10 2 10 -3 0 -15 -30 -23 -31 -9 0 9 -2 9 -6 0 -2
-7 -12 -13 -21 -12 -11 0 -12 2 -4 6 6 2 12 10 12 17 0 7 7 13 15 13 8 0 15
-4 15 -9z m-211 -82 c1 -6 -6 -1 -14 10 -15 18 -15 18 -8 0 4 -12 2 -17 -3
-13 -6 3 -18 -7 -28 -24 -9 -16 -14 -29 -11 -29 3 0 -3 -10 -15 -22 -22 -24
-27 -44 -8 -32 7 4 8 3 4 -5 -4 -6 -11 -9 -15 -7 -4 3 -18 -12 -30 -34 -23
-42 -45 -63 -34 -33 9 23 112 193 132 216 15 18 16 18 22 0 4 -10 8 -22 8 -27z
m33 16 c-7 -5 -10 -17 -6 -28 5 -16 4 -16 -5 -4 -16 22 -13 40 7 40 12 0 14
-2 4 -8z m188 -36 c0 -3 -7 -2 -17 1 -11 4 -14 3 -9 -5 4 -7 2 -12 -3 -12 -12
0 -14 11 -5 34 5 13 8 13 20 1 8 -7 14 -16 14 -19z m130 -6 c0 -5 -5 -10 -11
-10 -5 0 -7 5 -4 10 3 6 8 10 11 10 2 0 4 -4 4 -10z m-310 -32 c0 -6 -6 -5
-15 2 -12 10 -15 10 -15 0 0 -8 -3 -11 -6 -7 -3 3 -3 10 0 16 8 12 36 3 36
-11z m250 18 c0 -2 -8 -10 -17 -17 -16 -13 -17 -12 -4 4 13 16 21 21 21 13z
m-317 -47 c4 -17 2 -26 -6 -26 -7 0 -12 14 -12 33 0 37 9 33 18 -7z m107 24
c0 -12 -20 -39 -20 -28 0 6 -4 4 -9 -3 -7 -11 -9 -11 -14 2 -4 9 -3 15 1 15
20 -3 33 2 27 11 -3 6 -1 10 4 10 6 0 11 -3 11 -7z m125 -21 c-3 -3 -11 0 -18
7 -9 10 -8 11 6 5 10 -3 15 -9 12 -12z m-115 -52 c0 -5 -2 -10 -4 -10 -3 0 -8
5 -11 10 -3 6 -1 10 4 10 6 0 11 -4 11 -10z m5115 -305 c389 -52 724 -174 970
-354 147 -107 283 -266 358 -416 51 -104 44 -103 -74 9 -285 273 -437 366
-756 469 -208 67 -299 80 -558 81 -208 0 -231 -2 -435 -36 -336 -58 -412 -64
-612 -51 -134 9 -192 18 -258 38 -122 37 -282 64 -380 65 -47 0 -156 5 -243
10 -132 9 -177 8 -275 -5 -291 -40 -623 -138 -1007 -300 -488 -204 -759 -355
-1015 -564 -125 -102 -432 -405 -517 -511 -106 -132 -275 -374 -368 -527 -49
-81 -134 -215 -189 -298 -54 -82 -113 -180 -132 -217 -29 -57 -70 -105 -81
-94 -11 11 208 482 285 613 17 28 45 77 62 109 57 104 174 276 261 384 107
134 348 381 507 521 269 236 647 498 944 654 322 169 382 194 748 306 133 40
180 63 149 73 -8 2 -32 8 -54 11 l-40 7 44 14 c32 9 151 15 414 19 373 6 465
1 590 -31 105 -27 351 -64 422 -64 39 0 113 9 165 21 101 21 441 75 525 82 97
9 431 -2 550 -18z m-420 -1115 c258 -20 488 -62 680 -125 55 -18 199 -72 320
-120 236 -94 297 -128 475 -270 227 -181 344 -322 465 -565 89 -179 186 -432
171 -447 -4 -4 -23 9 -44 28 -295 276 -663 508 -1052 664 -859 345 -1983 453
-3154 305 -448 -57 -824 -139 -1154 -252 -207 -70 -348 -131 -582 -248 -305
-154 -461 -257 -740 -485 -85 -70 -225 -180 -310 -243 -85 -63 -190 -141 -232
-173 -56 -42 -79 -54 -87 -46 -25 30 520 641 743 834 277 239 421 331 771 495
445 209 652 278 1265 422 592 139 956 199 1375 225 194 12 930 12 1090 1z
m-1869 -1570 c57 -133 59 -137 62 -241 3 -92 1 -113 -18 -157 -27 -62 -94
-127 -146 -141 -50 -14 -133 -14 -173 0 -40 14 -29 31 40 60 40 18 50 28 69
70 l21 49 -31 168 c-43 230 -48 315 -23 373 11 25 35 62 54 83 l33 38 26 -83
c15 -46 53 -145 86 -219z m-1821 -845 c479 -63 880 -245 1473 -668 264 -187
375 -261 514 -341 65 -37 120 -72 124 -77 3 -5 9 -7 14 -4 15 9 -52 94 -152
191 -95 92 -205 183 -382 314 -71 53 -95 75 -84 81 33 18 257 80 390 108 231
48 397 64 638 64 660 1 1129 -186 1915 -762 177 -129 532 -432 544 -463 1 -5
-14 -34 -34 -65 l-37 -55 -54 53 c-32 32 -57 49 -62 44 -5 -6 -32 -42 -61 -82
-67 -92 -151 -170 -240 -221 -39 -23 -187 -93 -328 -157 -297 -134 -470 -190
-703 -225 -191 -29 -317 -52 -475 -89 -111 -25 -168 -31 -375 -42 -275 -13
-417 -8 -635 21 -82 11 -253 25 -380 30 -287 12 -348 20 -540 69 -154 40 -329
71 -400 71 -27 0 -62 15 -128 54 -145 86 -262 196 -362 341 -93 134 -227 291
-441 515 -55 58 -128 146 -161 195 -32 50 -102 149 -155 221 -52 72 -114 162
-136 200 -23 38 -55 89 -71 114 -17 25 -31 54 -31 64 0 26 -86 346 -107 397
-9 23 -12 44 -7 49 24 22 242 61 419 74 100 8 393 -3 510 -19z m-1247 -236 c4
-24 3 -24 -12 -4 -19 24 -20 38 -3 33 6 -3 13 -15 15 -29z m5182 -6773 c0 -2
-7 -7 -16 -10 -8 -3 -12 -2 -9 4 6 10 25 14 25 6z m-3515 -236 c13 -5 14 -9 5
-9 -8 0 -24 4 -35 9 -13 5 -14 9 -5 9 8 0 24 -4 35 -9z"/>
<path d="M17910 18821 c0 -6 4 -13 10 -16 6 -3 7 1 4 9 -7 18 -14 21 -14 7z"/>
<path d="M18520 18282 c12 -18 24 -31 27 -28 3 2 -7 17 -22 33 l-28 28 23 -33z"/>
<path d="M18037 18229 c7 -7 15 -10 18 -7 3 3 -2 9 -12 12 -14 6 -15 5 -6 -5z"/>
<path d="M18146 17882 c-3 -5 1 -9 9 -9 8 0 12 4 9 9 -3 4 -7 8 -9 8 -2 0 -6
-4 -9 -8z"/>
<path d="M18120 17830 c0 -5 5 -10 10 -10 6 0 10 5 10 10 0 6 -4 10 -10 10 -5
0 -10 -4 -10 -10z"/>
<path d="M18128 17523 c7 -3 16 -2 19 1 4 3 -2 6 -13 5 -11 0 -14 -3 -6 -6z"/>
<path d="M18140 17500 c0 -5 5 -10 10 -10 6 0 10 5 10 10 0 6 -4 10 -10 10 -5
0 -10 -4 -10 -10z"/>
<path d="M18387 16856 c-24 -19 -21 -32 8 -32 14 0 25 4 25 9 0 5 -7 7 -15 3
-8 -3 -15 -1 -15 3 0 5 6 11 13 14 6 2 10 7 7 10 -3 3 -13 0 -23 -7z"/>
<path d="M18610 16514 c0 -8 5 -12 10 -9 6 4 8 11 5 16 -9 14 -15 11 -15 -7z"/>
<path d="M19470 16010 c0 -5 5 -10 10 -10 6 0 10 5 10 10 0 6 -4 10 -10 10 -5
0 -10 -4 -10 -10z"/>
<path d="M19443 15975 c0 -11 4 -12 11 -5 13 13 43 13 49 0 3 -6 4 -5 3 2 -4
20 -63 23 -63 3z"/>
<path d="M15138 14073 c7 -3 16 -2 19 1 4 3 -2 6 -13 5 -11 0 -14 -3 -6 -6z"/>
<path d="M14758 13929 c-20 -11 -13 -39 10 -39 13 0 12 3 -4 15 -17 13 -17 14
-1 15 9 0 17 5 17 10 0 12 0 12 -22 -1z"/>
<path d="M14580 13870 c-9 -6 -10 -10 -3 -10 6 0 15 5 18 10 8 12 4 12 -15 0z"/>
<path d="M14415 13829 c-4 -5 -4 -13 -1 -16 3 -4 6 0 7 8 0 8 4 6 9 -6 7 -16
9 -17 9 -3 1 21 -15 32 -24 17z"/>
<path d="M14305 13820 c-3 -4 2 -11 11 -14 23 -9 31 -7 31 7 0 14 -34 20 -42
7z"/>
<path d="M14236 13802 c-3 -5 1 -9 9 -9 8 0 12 4 9 9 -3 4 -7 8 -9 8 -2 0 -6
-4 -9 -8z"/>
<path d="M14070 13736 c0 -2 8 -10 18 -17 15 -13 16 -12 3 4 -13 16 -21 21
-21 13z"/>
<path d="M18676 22667 c3 -10 9 -15 12 -12 3 3 0 11 -7 18 -10 9 -11 8 -5 -6z"/>
<path d="M12158 22643 c7 -3 16 -2 19 1 4 3 -2 6 -13 5 -11 0 -14 -3 -6 -6z"/>
<path d="M18660 22640 c0 -5 5 -10 11 -10 5 0 7 5 4 10 -3 6 -8 10 -11 10 -2
0 -4 -4 -4 -10z"/>
<path d="M18800 22481 c0 -6 4 -13 10 -16 6 -3 7 1 4 9 -7 18 -14 21 -14 7z"/>
<path d="M18860 22351 c0 -6 4 -12 8 -15 5 -3 9 1 9 9 0 8 -4 15 -9 15 -4 0
-8 -4 -8 -9z"/>
<path d="M11954 22322 c3 -5 0 -13 -6 -15 -8 -3 -6 -6 5 -6 19 -1 23 14 5 25
-6 4 -8 3 -4 -4z"/>
<path d="M18844 22269 c-4 -8 -3 -9 4 -5 15 9 15 1 1 -27 -7 -12 -8 -19 -4
-15 5 4 14 3 22 -3 9 -8 13 -8 13 -1 0 6 -4 13 -10 17 -5 3 -7 12 -4 19 7 18
-12 30 -22 15z"/>
<path d="M18790 22263 c8 -3 18 -11 22 -17 5 -7 8 -4 8 7 0 11 -7 17 -22 16
-16 0 -18 -2 -8 -6z"/>
<path d="M18975 22050 c-3 -5 -1 -10 4 -10 6 0 11 5 11 10 0 6 -2 10 -4 10 -3
0 -8 -4 -11 -10z"/>
<path d="M11816 22026 c3 -8 0 -17 -7 -22 -8 -4 -10 -3 -5 4 4 7 3 12 -3 12
-14 0 -23 -17 -13 -24 17 -10 51 6 45 22 -5 11 -3 13 7 7 9 -5 11 -4 6 3 -10
17 -36 15 -30 -2z"/>
<path d="M18865 21979 c-11 -17 -2 -18 19 -3 17 12 17 14 4 14 -9 0 -20 -5
-23 -11z"/>
<path d="M11762 21958 c2 -13 12 -22 25 -24 16 -3 21 0 17 10 -3 8 -12 12 -20
9 -8 -3 -14 -1 -14 5 0 6 6 13 13 15 7 3 4 6 -6 6 -13 1 -18 -5 -15 -21z"/>
<path d="M19005 21970 c3 -5 8 -10 11 -10 2 0 4 5 4 10 0 6 -5 10 -11 10 -5 0
-7 -4 -4 -10z"/>
<path d="M14844 21931 c4 -5 50 -33 104 -62 132 -71 724 -463 887 -588 59 -45
247 -194 295 -234 39 -33 103 -67 127 -67 51 0 28 36 -42 66 -39 16 -40 17
-15 26 35 13 35 14 5 50 -254 310 -808 660 -1254 793 -90 27 -116 30 -107 16z"/>
<path d="M11763 21879 c1 -21 5 -25 22 -20 16 4 17 6 3 9 -9 2 -19 11 -21 20
-3 9 -4 5 -4 -9z"/>
<path d="M11785 21819 c-4 -6 -5 -12 -2 -15 2 -3 7 2 10 11 7 17 1 20 -8 4z"/>
<path d="M11670 21800 c0 -5 -6 -10 -14 -10 -8 0 -16 -10 -18 -22 -3 -22 -28
-39 -28 -18 0 6 5 8 10 5 6 -3 10 1 10 9 0 21 -26 20 -34 -1 -6 -15 8 -32 27
-33 4 0 7 -6 7 -14 0 -8 7 -17 16 -20 22 -9 24 -8 24 9 0 8 -5 15 -11 15 -5 0
-7 -5 -3 -12 4 -7 3 -8 -4 -4 -13 8 -4 36 17 54 14 12 14 13 -1 8 -10 -3 -18
-1 -18 4 0 6 7 10 15 10 8 0 15 7 15 15 0 8 -2 15 -5 15 -3 0 -5 -4 -5 -10z"/>
<path d="M11697 21753 c-3 -3 -3 -11 0 -19 3 -8 0 -14 -7 -14 -6 0 -9 -4 -5
-10 6 -9 45 18 45 31 0 9 -27 19 -33 12z"/>
<path d="M19025 21749 c-11 -16 -1 -19 13 -3 7 8 8 14 3 14 -5 0 -13 -5 -16
-11z"/>
<path d="M11746 21727 c3 -10 9 -15 12 -12 3 3 0 11 -7 18 -10 9 -11 8 -5 -6z"/>
<path d="M17434 21617 c-1 -93 -43 -287 -124 -577 -36 -127 -109 -491 -110
-542 0 -12 8 -18 24 -18 45 0 87 87 172 355 149 467 171 658 96 818 -41 87
-57 77 -58 -36z"/>
<path d="M11696 21677 c3 -10 9 -15 12 -12 3 3 0 11 -7 18 -10 9 -11 8 -5 -6z"/>
<path d="M11761 21674 c0 -11 3 -14 6 -6 3 7 2 16 -1 19 -3 4 -6 -2 -5 -13z"/>
<path d="M11635 21660 c-3 -6 1 -7 9 -4 18 7 21 14 7 14 -6 0 -13 -4 -16 -10z"/>
<path d="M11619 21628 c-7 -26 -3 -37 17 -47 15 -6 24 -7 24 -1 0 6 -6 10 -14
10 -18 0 -29 27 -13 34 9 3 9 5 0 5 -7 1 -13 0 -14 -1z"/>
<path d="M11602 21558 c-7 -7 -12 -16 -12 -21 0 -5 7 -1 16 8 9 9 14 18 12 20
-2 3 -10 -1 -16 -7z"/>
<path d="M11550 21499 c0 -9 11 -21 25 -27 14 -6 25 -8 25 -3 0 11 -30 36 -30
25 0 -5 -5 -2 -10 6 -8 13 -10 13 -10 -1z"/>
<path d="M11626 21433 c-6 -14 -5 -15 5 -6 7 7 10 15 7 18 -3 3 -9 -2 -12 -12z"/>
<path d="M11587 21405 c-4 -8 -3 -16 1 -19 4 -3 9 4 9 15 2 23 -3 25 -10 4z"/>
<path d="M11500 21289 c0 -9 9 -19 20 -22 13 -3 18 -1 13 6 -4 7 0 8 11 4 10
-4 15 -3 11 3 -3 6 -1 10 6 10 7 0 10 3 7 6 -4 3 -16 0 -28 -6 -18 -10 -24 -9
-31 1 -7 11 -9 11 -9 -2z"/>
<path d="M11518 21213 c7 -3 16 -2 19 1 4 3 -2 6 -13 5 -11 0 -14 -3 -6 -6z"/>
<path d="M11525 21080 c-3 -6 1 -7 9 -4 18 7 21 14 7 14 -6 0 -13 -4 -16 -10z"/>
<path d="M14125 21039 c-606 -58 -1374 -371 -1816 -739 -324 -271 -464 -430
-563 -641 -85 -180 -166 -463 -166 -578 0 -66 -4 -86 -25 -122 -25 -44 -30
-74 -19 -103 8 -21 72 -22 80 -1 4 8 17 15 30 15 21 0 24 5 24 33 0 27 13 49
69 113 144 164 444 417 634 533 174 106 476 240 633 280 175 45 284 55 574 55
151 -1 316 -6 365 -12 72 -8 94 -8 111 3 32 21 134 116 144 135 12 23 -81 203
-116 227 -17 11 -60 18 -132 23 l-107 6 36 17 c20 9 64 24 97 33 123 34 176
-2 247 -170 29 -68 44 -117 41 -131 -3 -12 -28 -50 -56 -85 -48 -60 -59 -80
-42 -80 4 0 66 -7 137 -15 185 -20 494 -43 755 -55 124 -6 295 -18 380 -28
102 -11 222 -16 351 -15 197 1 268 11 302 41 31 27 48 109 48 234 0 145 -18
224 -78 348 -104 216 -265 314 -808 493 -369 122 -553 165 -805 187 -131 11
-197 11 -325 -1z"/>
<path d="M11457 21016 c-4 -10 -1 -13 8 -9 8 3 12 9 9 14 -7 12 -11 11 -17 -5z"/>
<path d="M11435 20981 c-7 -12 12 -24 25 -16 11 7 4 25 -10 25 -5 0 -11 -4
-15 -9z"/>
<path d="M11422 20904 c-1 -13 0 -24 2 -24 7 0 14 40 7 44 -4 3 -8 -6 -9 -20z"/>
<path d="M11360 20910 c0 -5 5 -10 11 -10 5 0 7 5 4 10 -3 6 -8 10 -11 10 -2
0 -4 -4 -4 -10z"/>
<path d="M11339 20873 c-8 -9 -8 -13 0 -13 6 0 11 4 11 10 0 5 7 7 15 4 8 -4
15 -2 15 3 0 14 -29 12 -41 -4z"/>
<path d="M11365 20849 c-4 -6 -5 -12 -2 -15 2 -3 7 2 10 11 7 17 1 20 -8 4z"/>
<path d="M11415 20849 c-4 -6 -5 -12 -2 -15 2 -3 7 2 10 11 7 17 1 20 -8 4z"/>
<path d="M11332 20720 c0 -14 2 -19 5 -12 2 6 2 18 0 25 -3 6 -5 1 -5 -13z"/>
<path d="M11296 20718 c3 -5 10 -6 15 -3 13 9 11 12 -6 12 -8 0 -12 -4 -9 -9z"/>
<path d="M11276 20688 c3 -5 10 -6 15 -3 13 9 11 12 -6 12 -8 0 -12 -4 -9 -9z"/>
<path d="M18949 20683 c-12 -16 -12 -17 2 -6 9 7 20 9 24 5 5 -4 5 -1 1 6 -9
16 -11 15 -27 -5z"/>
<path d="M19665 19868 c-47 -26 -145 -135 -145 -162 0 -7 39 -16 98 -23 53 -7
141 -24 195 -38 53 -14 102 -25 109 -25 6 0 -10 19 -36 42 -26 22 -72 72 -102
110 -47 58 -59 68 -87 68 -31 1 -31 1 -9 13 12 7 19 16 16 20 -10 9 -15 9 -39
-5z"/>
<path d="M13837 19504 c-220 -34 -411 -102 -695 -248 l-52 -27 25 -37 c14 -20
25 -41 25 -47 1 -38 19 -34 153 29 245 116 428 174 621 195 49 6 91 13 94 16
3 3 -2 13 -11 23 -9 9 -22 39 -28 65 -9 31 -18 47 -29 46 -8 -1 -55 -7 -103
-15z"/>
<path d="M14090 19511 c0 -22 38 -49 109 -75 l71 -28 45 30 c25 17 42 32 38
35 -14 8 -145 35 -205 42 -40 5 -58 4 -58 -4z"/>
<path d="M14397 19398 c-90 -49 -90 -60 -3 -92 40 -15 119 -54 175 -86 l103
-59 53 46 54 46 -37 26 c-83 60 -249 151 -274 151 -7 0 -39 -15 -71 -32z"/>
<path d="M19427 19360 c-4 -18 -7 -45 -7 -60 0 -27 1 -27 88 -34 109 -8 234
-35 367 -81 57 -19 106 -35 110 -35 3 0 5 28 3 62 l-3 61 -84 29 c-115 38
-295 77 -390 85 l-78 6 -6 -33z"/>
<path d="M14757 19178 l-48 -43 98 -70 98 -70 0 -55 c-1 -30 -5 -79 -9 -107
-6 -37 -5 -53 2 -53 25 0 35 196 16 309 -10 55 -16 68 -50 97 -21 18 -44 33
-49 34 -6 0 -32 -19 -58 -42z"/>
<path d="M20120 19159 c0 -52 23 -141 54 -210 32 -69 33 -33 2 44 -13 31 -23
57 -21 57 1 0 38 -27 81 -60 85 -67 87 -66 99 11 l7 46 -54 45 c-54 47 -145
108 -160 108 -4 0 -8 -18 -8 -41z"/>
<path d="M12841 19085 c-331 -211 -611 -454 -739 -643 -86 -126 -184 -330
-180 -374 8 -80 85 -20 189 149 95 152 164 237 293 361 142 135 403 328 589
436 37 22 47 33 47 55 0 32 -32 95 -51 99 -8 1 -74 -36 -148 -83z"/>
<path d="M15545 19080 c3 -5 8 -10 11 -10 2 0 4 5 4 10 0 6 -5 10 -11 10 -5 0
-7 -4 -4 -10z"/>
<path d="M17426 19075 c4 -8 8 -15 10 -15 2 0 4 7 4 15 0 8 -4 15 -10 15 -5 0
-7 -7 -4 -15z"/>
<path d="M14977 19044 c10 -36 10 -156 0 -206 -7 -33 -63 -118 -140 -213 -13
-16 -38 -59 -55 -95 -17 -36 -51 -95 -75 -131 l-43 -67 33 -65 c18 -36 36 -68
40 -70 5 -3 32 25 61 61 64 81 173 299 202 402 22 80 26 182 10 227 -9 24 -4
21 38 -22 27 -27 53 -59 59 -70 21 -38 23 -8 3 50 -21 60 -98 192 -126 215
-13 12 -14 10 -7 -16z"/>
<path d="M15650 19045 c-7 -8 -8 -15 -2 -15 5 0 15 7 22 15 7 8 8 15 2 15 -5
0 -15 -7 -22 -15z"/>
<path d="M17471 19044 c0 -11 3 -14 6 -6 3 7 2 16 -1 19 -3 4 -6 -2 -5 -13z"/>
<path d="M15571 19034 c0 -11 3 -14 6 -6 3 7 2 16 -1 19 -3 4 -6 -2 -5 -13z"/>
<path d="M15700 19043 c0 -6 5 -15 10 -18 6 -4 7 -11 4 -17 -5 -8 -1 -9 10 -5
10 4 15 3 11 -3 -3 -6 0 -10 7 -11 7 0 4 -4 -7 -9 -11 -5 -14 -9 -7 -9 6 -1
12 -11 11 -23 l0 -23 -9 23 c-5 12 -10 26 -10 30 -1 4 -8 11 -16 15 -8 4 -14
17 -14 29 0 18 -2 19 -16 7 -14 -12 -14 -14 0 -25 19 -13 21 -40 4 -47 -7 -3
-2 -6 12 -6 20 -1 22 -3 10 -11 -13 -9 -13 -10 0 -10 13 0 13 -1 0 -11 -12 -9
-11 -10 8 -6 26 6 30 -9 4 -15 -15 -4 -17 -13 -14 -42 2 -19 8 -34 12 -31 4 2
5 -7 2 -22 -3 -18 -1 -24 6 -19 8 4 10 2 6 -8 -8 -22 5 -39 20 -27 9 8 13 7
13 -3 0 -10 -9 -13 -26 -10 -22 3 -24 2 -11 -8 20 -17 24 -56 8 -76 -7 -8 -8
-13 -2 -9 7 4 14 -2 17 -13 3 -11 2 -18 -2 -16 -4 3 -13 0 -21 -5 -13 -9 -13
-10 0 -8 29 3 38 -1 36 -18 -1 -15 9 -18 67 -21 54 -2 68 0 73 13 5 11 10 13
19 5 8 -7 12 -5 12 5 0 8 -6 15 -12 15 -6 0 -11 10 -10 23 1 12 -7 30 -18 40
-17 14 -17 17 -4 17 10 0 14 5 11 15 -4 8 -9 13 -13 11 -4 -3 -6 14 -5 37 3
55 3 54 13 38 5 -8 7 -25 5 -39 -4 -22 -3 -24 11 -12 11 9 13 15 5 20 -7 4
-11 10 -11 14 4 30 -1 38 -19 33 -15 -4 -20 0 -20 13 0 10 6 21 13 23 10 4 10
6 0 6 -7 1 -13 6 -13 12 0 5 6 7 13 3 9 -5 9 -4 0 6 -6 7 -9 20 -6 29 4 12 1
10 -11 -4 -10 -11 -15 -15 -12 -8 4 6 0 14 -6 16 -10 4 -10 6 -1 6 7 1 10 8 6
18 -4 11 -3 14 5 9 7 -4 12 -3 12 1 0 5 -9 14 -20 21 -11 7 -20 17 -20 23 0 5
5 7 12 3 7 -4 8 -3 4 4 -4 8 -15 8 -31 2 -16 -6 -25 -6 -25 0 0 6 5 10 10 10
6 0 10 4 10 8 0 8 -64 34 -76 32 -4 -1 -11 4 -15 12 -6 9 -9 9 -9 1z m47 -155
c-3 -8 -6 -5 -6 6 -1 11 2 17 5 13 3 -3 4 -12 1 -19z m57 -127 c-2 -3 -12 3
-22 13 -16 17 -16 18 5 5 12 -7 20 -15 17 -18z m-19 -41 c-3 -5 -14 -10 -23
-10 -15 0 -15 2 -2 10 20 13 33 13 25 0z m115 -94 c0 -11 -19 -15 -25 -6 -3 5
1 10 9 10 9 0 16 -2 16 -4z"/>
<path d="M17188 19001 c-7 -10 -21 -17 -31 -15 -11 1 -16 0 -13 -4 15 -14 36
-8 51 14 18 28 12 33 -7 5z"/>
<path d="M15580 19000 c-12 -7 -12 -12 4 -29 11 -12 24 -21 30 -21 6 0 3 5 -6
11 -22 12 -24 33 -4 26 10 -4 13 -1 9 9 -6 16 -12 17 -33 4z"/>
<path d="M21348 18960 c-25 -19 -88 -133 -88 -159 0 -6 10 -11 23 -11 30 0
100 117 95 161 l-3 31 -27 -22z"/>
<path d="M20406 18910 l-7 -44 73 -73 c39 -40 74 -71 76 -68 6 6 -80 163 -109
197 l-26 32 -7 -44z"/>
<path d="M15584 18928 c-3 -4 0 -7 6 -6 7 2 13 -11 15 -29 2 -21 -1 -30 -8
-26 -6 3 -7 1 -3 -6 6 -9 11 -9 22 0 17 14 19 -2 2 -19 -9 -9 -8 -12 6 -12 11
0 16 -5 13 -14 -3 -8 5 -18 19 -25 29 -13 31 -2 4 32 -21 26 -28 63 -10 52 6
-3 10 -4 10 -1 0 3 -10 10 -21 17 -17 9 -20 8 -14 -3 6 -10 5 -11 -5 -1 -12
11 -11 15 5 26 17 13 17 14 -9 19 -14 3 -29 1 -32 -4z"/>
<path d="M15920 18928 c0 -4 11 -8 24 -8 35 0 57 -10 49 -23 -4 -6 -1 -7 7 -2
10 6 10 11 -3 20 -9 7 -14 15 -10 18 3 4 -11 6 -31 5 -20 -1 -36 -5 -36 -10z"/>
<path d="M10140 18910 c0 -5 12 -10 28 -9 24 0 25 1 7 9 -27 12 -35 12 -35 0z"/>
<path d="M10135 18880 c-4 -6 -13 -9 -21 -6 -8 3 -11 0 -7 -9 3 -8 9 -13 13
-10 5 3 16 -5 24 -17 14 -19 16 -20 16 -5 0 10 5 15 10 12 6 -4 10 -3 9 2 -4
20 2 24 18 12 11 -9 14 -10 9 -2 -4 7 -16 18 -26 23 -16 9 -19 8 -14 -7 5 -17
5 -17 -9 0 -10 12 -17 15 -22 7z"/>
<path d="M15970 18875 c14 -7 27 -11 30 -9 6 7 -22 24 -40 23 -9 0 -5 -6 10
-14z"/>
<path d="M17041 18841 c-10 -6 -6 -11 15 -19 16 -6 23 -11 17 -11 -7 -1 -13
-5 -13 -11 0 -15 17 -12 23 4 8 19 -25 47 -42 37z"/>
<path d="M10180 18830 c-9 -6 -10 -10 -3 -10 6 0 15 5 18 10 8 12 4 12 -15 0z"/>
<path d="M10236 18802 l-17 -27 20 23 c13 15 21 18 24 10 4 -9 6 -10 6 -1 2
24 -17 22 -33 -5z"/>
<path d="M15554 18808 c-4 -7 -4 -10 1 -6 4 4 15 2 24 -5 14 -11 14 -10 2 6
-16 20 -18 21 -27 5z"/>
<path d="M16030 18799 c0 -5 5 -7 10 -4 6 3 10 8 10 11 0 2 -4 4 -10 4 -5 0
-10 -5 -10 -11z"/>
<path d="M20085 18778 c-13 -59 -53 -125 -97 -160 -41 -32 -320 -214 -363
-236 -60 -31 -182 -33 -320 -6 l-30 6 30 -26 c47 -40 140 -86 173 -86 19 0 46
13 78 38 103 81 204 122 304 122 65 0 113 16 158 53 22 18 53 39 69 48 56 30
137 186 103 197 -7 3 -33 22 -56 44 l-42 39 -7 -33z"/>
<path d="M15634 18764 c3 -15 11 -31 18 -36 7 -4 8 -8 3 -8 -6 0 -17 6 -25 13
-8 6 -6 -1 4 -17 10 -16 13 -26 8 -22 -6 3 -14 1 -18 -5 -4 -8 -3 -9 4 -5 7 4
12 3 12 -3 0 -6 6 -8 14 -5 8 3 17 1 20 -4 3 -5 0 -10 -7 -9 -6 0 -24 -1 -39
-1 -27 -2 -27 -3 -11 -22 17 -20 39 -28 28 -11 -3 5 -1 12 3 15 5 3 9 -5 8
-17 -1 -19 18 -46 34 -47 3 0 6 15 6 34 0 26 -4 32 -16 28 -12 -5 -13 -3 -3 9
7 9 8 20 3 28 -4 8 -7 29 -5 48 2 18 -1 36 -6 39 -5 3 -6 -3 -2 -12 4 -12 3
-15 -5 -10 -7 4 -12 13 -12 21 0 8 -5 17 -10 20 -7 4 -9 -3 -6 -21z"/>
<path d="M15999 18770 c0 -8 -2 -23 -4 -33 -2 -11 -1 -16 2 -13 3 3 11 -2 18
-10 11 -15 12 -15 12 -1 0 9 -7 19 -16 22 -11 4 -12 8 -4 13 8 5 9 13 3 22 -9
13 -10 13 -11 0z"/>
<path d="M10291 18754 c0 -11 3 -14 6 -6 3 7 2 16 -1 19 -3 4 -6 -2 -5 -13z"/>
<path d="M15223 18713 c-45 -250 -151 -501 -314 -743 -42 -63 -58 -98 -64
-135 -12 -87 -48 -126 -167 -182 -25 -12 -51 -31 -58 -42 -6 -12 -20 -21 -31
-21 -11 0 -18 -4 -15 -8 5 -8 -28 -42 -41 -42 -10 0 -53 -51 -53 -62 0 -5 -5
-8 -12 -6 -7 3 -46 -31 -89 -74 -47 -48 -94 -86 -124 -99 -33 -15 -87 -61
-182 -157 -132 -133 -135 -136 -129 -172 6 -39 8 -35 -71 -99 -95 -76 -32 -57
128 39 368 222 627 442 856 730 299 375 427 684 410 994 -8 148 -25 179 -44
79z"/>
<path d="M15576 18761 c-4 -5 3 -7 14 -4 23 6 26 13 6 13 -8 0 -17 -4 -20 -9z"/>
<path d="M21236 18709 c-8 -40 -8 -134 0 -127 3 4 16 40 29 82 l23 76 -23 0
c-17 0 -24 -7 -29 -31z"/>
<path d="M15585 18703 c2 -10 4 -21 4 -25 1 -5 5 -8 10 -8 5 0 8 8 6 18 -2 9
-4 20 -4 25 -1 4 -5 7 -10 7 -5 0 -8 -8 -6 -17z"/>
<path d="M16050 18651 c0 -6 4 -13 10 -16 6 -3 7 1 4 9 -7 18 -14 21 -14 7z"/>
<path d="M16015 18640 c-7 -12 2 -30 16 -30 5 0 9 9 9 20 0 21 -15 27 -25 10z"/>
<path d="M16020 18590 c0 -5 7 -7 15 -4 8 4 15 8 15 10 0 2 -7 4 -15 4 -8 0
-15 -4 -15 -10z"/>
<path d="M10230 18580 c-9 -6 -10 -10 -3 -10 6 0 15 5 18 10 8 12 4 12 -15 0z"/>
<path d="M15617 18523 c-3 -16 -1 -34 5 -40 7 -9 7 -13 -1 -13 -7 0 -9 -5 -5
-11 3 -6 15 -9 25 -6 11 3 17 1 13 -4 -3 -5 -12 -9 -20 -9 -8 0 -12 -5 -9 -10
4 -6 10 -8 15 -5 5 3 12 1 15 -5 4 -6 1 -9 -6 -8 -6 2 -15 -9 -20 -24 -4 -18
-3 -28 3 -28 6 0 3 -9 -7 -20 -10 -11 -15 -23 -12 -27 4 -3 7 -1 7 6 0 7 5 9
10 6 16 -10 12 -25 -7 -26 -12 0 -13 -2 -5 -6 10 -4 10 -8 1 -19 -9 -11 -8
-14 2 -14 8 0 5 -6 -7 -16 -18 -14 -18 -15 4 -4 12 6 20 15 18 19 -3 4 1 16 8
27 8 10 12 33 10 51 -2 17 0 35 6 38 6 4 7 -1 3 -11 -4 -10 -2 -15 3 -11 6 3
15 -3 22 -13 10 -17 9 -18 -6 -14 -14 5 -14 4 -2 -4 10 -8 20 -5 38 14 26 26
42 31 42 13 0 -5 -4 -8 -9 -4 -5 3 -12 1 -16 -5 -3 -5 0 -10 7 -10 10 0 9 -3
-2 -9 -8 -6 -18 -7 -22 -5 -13 8 -9 -21 5 -41 13 -17 43 -13 32 5 -3 4 -1 18
3 31 7 19 10 20 15 6 4 -10 2 -17 -4 -17 -6 0 -8 -4 -5 -9 10 -16 -6 -41 -26
-41 -18 0 -18 -1 -4 -16 9 -8 16 -23 16 -32 0 -9 4 -23 9 -31 6 -9 8 -4 7 16
-2 16 -6 35 -10 41 -4 7 -2 12 3 12 6 0 11 -3 12 -7 0 -5 3 -19 5 -33 2 -14 5
-31 6 -37 1 -7 5 -13 10 -13 5 0 8 6 6 13 -1 6 3 22 10 35 9 15 9 22 2 22 -6
0 -8 5 -5 10 3 6 13 10 21 10 12 0 12 -4 4 -20 -6 -11 -8 -20 -4 -20 3 0 1 -7
-6 -15 -10 -12 -9 -15 6 -15 17 0 17 0 0 -13 -16 -12 -16 -14 -2 -14 9 0 16 4
16 9 0 5 5 6 11 2 8 -4 8 -1 1 13 -6 11 -7 25 -2 33 5 8 7 17 4 21 -2 4 4 6
14 5 10 0 16 6 16 17 -1 9 3 17 8 17 5 0 8 8 7 18 -3 36 1 63 10 57 5 -3 13 0
17 6 5 8 3 9 -6 4 -10 -6 -12 -4 -7 8 4 11 2 14 -9 10 -18 -7 -17 5 1 37 17
31 21 64 4 40 -8 -12 -9 -11 -6 5 2 11 9 19 16 17 7 -1 10 2 6 7 -3 6 -13 7
-23 4 -15 -6 -15 -4 2 15 11 12 17 22 15 23 -2 0 -41 1 -86 2 -71 2 -80 0 -70
-13 9 -11 5 -10 -15 2 -20 13 -28 14 -31 5 -3 -8 -10 -5 -20 8 -14 19 -16 19
-22 3 -4 -10 -12 -18 -17 -18 -6 0 -6 6 1 14 10 12 8 17 -8 25 -27 15 -28 15
-34 -16z m123 -39 c0 -8 -4 -12 -10 -9 -6 3 -7 -1 -4 -9 3 -9 9 -15 12 -14 17
2 23 -3 17 -12 -5 -8 -12 -7 -22 1 -12 10 -16 10 -24 -2 -13 -21 -11 5 3 36
13 28 28 33 28 9z m-45 -31 c0 -21 5 -28 18 -27 9 1 17 -4 17 -12 0 -8 -6 -11
-17 -7 -12 5 -14 3 -8 -8 8 -12 6 -12 -8 0 -9 7 -15 17 -12 21 3 5 1 11 -4 14
-10 6 -3 46 8 46 4 0 7 -12 6 -27z m12 -79 c-3 -3 -12 -4 -19 -1 -8 3 -5 6 6
6 11 1 17 -2 13 -5z m137 -79 c-4 -8 -10 -15 -15 -15 -4 0 -6 -7 -3 -15 4 -8
1 -15 -5 -15 -6 0 -11 9 -11 20 0 11 5 20 11 20 5 0 7 5 4 10 -3 6 1 10 9 10
10 0 13 -6 10 -15z"/>
<path d="M16865 18520 c3 -5 8 -10 11 -10 2 0 4 5 4 10 0 6 -5 10 -11 10 -5 0
-7 -4 -4 -10z"/>
<path d="M16032 18498 c-7 -9 -6 -17 4 -26 12 -11 14 -9 14 13 0 28 -3 30 -18
13z"/>
<path d="M16826 18495 c4 -8 11 -15 16 -15 6 0 5 6 -2 15 -7 8 -14 15 -16 15
-2 0 -1 -7 2 -15z"/>
<path d="M16842 18435 c-6 -14 -8 -25 -4 -25 4 0 12 11 19 25 6 14 8 25 4 25
-4 0 -13 -11 -19 -25z"/>
<path d="M15930 18440 c0 -5 5 -10 11 -10 5 0 7 5 4 10 -3 6 -8 10 -11 10 -2
0 -4 -4 -4 -10z"/>
<path d="M16025 18440 c3 -5 11 -10 16 -10 6 0 7 5 4 10 -3 6 -11 10 -16 10
-6 0 -7 -4 -4 -10z"/>
<path d="M15946 18405 c-9 -26 -7 -32 5 -12 6 10 9 21 6 23 -2 3 -7 -2 -11
-11z"/>
<path d="M10206 18395 c-16 -12 -22 -12 -28 -2 -6 9 -8 8 -8 -4 0 -12 8 -16
24 -15 13 0 22 3 20 5 -2 2 1 10 7 18 15 17 9 16 -15 -2z"/>
<path d="M16020 18402 c0 -10 27 -42 36 -42 8 0 4 7 -16 30 -11 13 -20 18 -20
12z"/>
<path d="M10070 18371 c0 -6 4 -13 10 -16 6 -3 7 1 4 9 -7 18 -14 21 -14 7z"/>
<path d="M19743 18335 c-50 -15 -124 -57 -144 -81 -31 -38 84 6 186 70 46 29
28 33 -42 11z"/>
<path d="M16036 18331 c-4 -7 -5 -15 -2 -18 9 -9 19 4 14 18 -4 11 -6 11 -12
0z"/>
<path d="M15675 18289 c5 -16 4 -19 -5 -14 -9 5 -11 4 -6 -4 6 -9 11 -9 22 0
11 9 14 8 14 -5 0 -9 -4 -16 -8 -16 -5 0 -9 -6 -9 -12 0 -7 -4 -21 -8 -30 -4
-12 -3 -18 5 -18 9 0 10 -3 1 -13 -6 -8 -8 -17 -4 -20 3 -4 1 -7 -6 -7 -7 0
-11 -6 -8 -13 3 -8 -1 -14 -8 -14 -8 0 -13 3 -12 6 1 3 -1 7 -5 9 -5 1 -8 -1
-7 -4 0 -4 -4 -10 -11 -14 -6 -4 3 -7 20 -8 25 -1 33 5 41 26 6 15 11 37 11
50 0 12 4 22 9 22 5 0 9 -4 9 -10 0 -5 4 -10 8 -10 4 0 8 9 8 19 0 11 -4 17
-10 14 -5 -4 -6 5 -3 19 5 19 0 30 -19 47 l-26 22 7 -22z"/>
<path d="M16031 18268 c0 -16 2 -18 6 -8 3 8 11 18 17 22 7 5 4 8 -6 8 -12 0
-18 -7 -17 -22z"/>
<path d="M16842 18245 c4 -4 1 -20 -7 -35 -13 -26 -13 -28 5 -33 11 -3 18 -1
14 4 -3 5 0 9 7 9 9 0 9 4 -1 15 -6 8 -9 19 -6 24 4 5 1 13 -6 17 -7 4 -10 4
-6 -1z"/>
<path d="M14554 18206 c-9 -24 66 -140 81 -125 6 6 -62 139 -71 139 -3 0 -7
-6 -10 -14z"/>
<path d="M15587 18195 c3 -8 9 -12 14 -9 12 7 11 11 -5 17 -10 4 -13 1 -9 -8z"/>
<path d="M15651 18197 c-1 -11 -6 -15 -13 -11 -7 5 -8 3 -3 -5 10 -16 29 2 22
21 -4 8 -6 7 -6 -5z"/>
<path d="M15860 18206 c0 -2 7 -7 16 -10 8 -3 12 -2 9 4 -6 10 -25 14 -25 6z"/>
<path d="M15575 18160 c-3 -6 1 -7 9 -4 18 7 21 14 7 14 -6 0 -13 -4 -16 -10z"/>
<path d="M16805 18140 c-3 -6 1 -7 9 -4 18 7 21 14 7 14 -6 0 -13 -4 -16 -10z"/>
<path d="M15756 18109 c-18 -30 -18 -30 3 -17 12 7 21 21 21 30 0 24 -3 23
-24 -13z"/>
<path d="M15562 18121 c4 -13 18 -16 19 -4 0 4 -5 9 -11 12 -7 2 -11 -2 -8 -8z"/>
<path d="M16813 18095 c0 -8 4 -12 9 -9 5 3 6 10 3 15 -9 13 -12 11 -12 -6z"/>
<path d="M14390 18069 c-162 -110 -401 -175 -685 -187 l-150 -7 47 -22 c26
-13 66 -23 87 -23 52 0 81 -12 124 -50 41 -35 44 -35 227 1 191 39 374 111
462 183 l28 22 -41 54 c-23 30 -44 56 -47 57 -4 2 -27 -11 -52 -28z"/>
<path d="M15618 18093 c25 -5 28 -13 10 -31 -10 -10 -10 -15 1 -21 11 -7 11
-9 0 -14 -10 -4 -9 -6 4 -6 10 -1 17 6 17 17 0 10 6 24 13 31 7 9 7 11 1 8 -7
-4 -14 0 -18 8 -3 8 -16 14 -28 14 l-23 -2 23 -4z"/>
<path d="M12101 18051 c-42 -42 -20 -55 271 -150 198 -64 355 -98 503 -108 87
-5 91 -5 140 25 28 16 69 41 92 54 l42 24 -159 12 c-213 16 -349 41 -565 102
-99 29 -208 54 -241 57 -53 5 -64 3 -83 -16z"/>
<path d="M16740 18040 c-9 -6 -10 -10 -3 -10 6 0 15 5 18 10 8 12 4 12 -15 0z"/>
<path d="M15575 18022 c-4 -10 0 -12 11 -8 8 3 18 6 20 6 2 0 4 4 4 8 0 15
-29 9 -35 -6z"/>
<path d="M15546 18013 c-6 -14 -5 -15 5 -6 7 7 10 15 7 18 -3 3 -9 -2 -12 -12z"/>
<path d="M16783 18014 c0 -8 3 -12 5 -9 3 3 11 0 19 -7 7 -6 15 -9 17 -7 2 2
-6 12 -18 21 -18 13 -23 14 -23 2z"/>
<path d="M15605 18000 c3 -5 8 -10 11 -10 2 0 4 5 4 10 0 6 -5 10 -11 10 -5 0
-7 -4 -4 -10z"/>
<path d="M15570 17990 c0 -5 5 -10 11 -10 5 0 7 5 4 10 -3 6 -8 10 -11 10 -2
0 -4 -4 -4 -10z"/>
<path d="M20505 17961 c-22 -11 -33 -20 -25 -20 8 0 33 8 55 18 22 11 33 20
25 20 -8 0 -33 -8 -55 -18z"/>
<path d="M10280 17960 c0 -6 7 -10 15 -10 8 0 15 2 15 4 0 2 -7 6 -15 10 -8 3
-15 1 -15 -4z"/>
<path d="M16780 17955 c0 -8 2 -15 4 -15 2 0 6 7 10 15 3 8 1 15 -4 15 -6 0
-10 -7 -10 -15z"/>
<path d="M15520 17940 c-13 -8 -12 -10 3 -10 9 0 17 5 17 10 0 12 -1 12 -20 0z"/>
<path d="M16746 17937 c3 -10 9 -15 12 -12 3 3 0 11 -7 18 -10 9 -11 8 -5 -6z"/>
<path d="M15485 17899 c-4 -6 -5 -12 -2 -15 2 -3 7 2 10 11 7 17 1 20 -8 4z"/>
<path d="M13250 17842 c-30 -10 -77 -30 -104 -44 l-49 -25 147 -13 147 -13 52
27 c29 14 60 26 69 26 38 0 24 18 -27 34 -84 26 -171 29 -235 8z"/>
<path d="M16710 17750 c13 -24 17 -25 17 -5 0 8 -6 16 -14 19 -11 4 -11 1 -3
-14z"/>
<path d="M13658 17743 c7 -3 16 -2 19 1 4 3 -2 6 -13 5 -11 0 -14 -3 -6 -6z"/>
<path d="M16780 17521 c0 -5 8 -15 17 -22 11 -10 14 -10 9 -1 -4 7 -2 12 4 12
6 0 8 5 5 10 -8 12 -35 13 -35 1z"/>
<path d="M10254 17398 c-4 -7 -4 -10 1 -6 4 4 15 2 24 -5 14 -11 14 -10 2 6
-16 20 -18 21 -27 5z"/>
<path d="M10346 17334 c-3 -8 -2 -12 3 -9 5 3 11 -3 13 -12 3 -15 5 -14 10 4
7 25 -17 40 -26 17z"/>
<path d="M11311 17202 c-1 -9 -8 -11 -23 -6 -13 3 -20 3 -16 -1 4 -5 3 -13 -2
-20 -7 -8 -4 -11 10 -10 26 2 44 20 37 37 -4 10 -6 11 -6 0z"/>
<path d="M11527 16953 c-2 -5 -1 -19 3 -33 6 -25 6 -25 12 -2 4 13 2 22 -5 22
-7 0 -5 5 3 10 9 6 10 10 3 10 -6 0 -14 -3 -16 -7z"/>
<path d="M11558 16863 c7 -3 16 -2 19 1 4 3 -2 6 -13 5 -11 0 -14 -3 -6 -6z"/>
<path d="M11536 16813 c9 -38 23 -70 23 -57 1 13 32 15 48 2 7 -5 14 -5 18 2
3 5 0 10 -8 10 -17 0 -31 27 -17 32 5 2 3 11 -4 21 -12 16 -15 16 -26 2 -11
-13 -11 -16 -1 -13 15 4 24 -29 10 -38 -5 -3 -16 11 -24 30 -18 43 -28 47 -19
9z"/>
<path d="M20707 16813 c-4 -3 -7 -11 -7 -17 0 -6 5 -5 12 2 6 6 9 14 7 17 -3
3 -9 2 -12 -2z"/>
<path d="M20697 16759 c7 -7 15 -10 18 -7 3 3 -2 9 -12 12 -14 6 -15 5 -6 -5z"/>
<path d="M11566 16734 c-3 -8 -2 -12 4 -9 5 3 24 -1 42 -10 18 -8 23 -12 12
-10 -27 7 -38 -26 -17 -52 13 -17 13 -16 4 4 -7 13 -7 24 -2 27 5 4 11 0 14
-6 6 -17 14 -9 19 17 1 11 7 23 12 26 4 4 3 10 -3 13 -6 4 -11 3 -11 -3 0 -6
-14 -4 -34 4 -30 13 -35 13 -40 -1z"/>
<path d="M20675 16719 c-4 -6 -5 -12 -2 -15 2 -3 7 2 10 11 7 17 1 20 -8 4z"/>
<path d="M11560 16660 c0 -5 5 -10 11 -10 5 0 7 5 4 10 -3 6 -8 10 -11 10 -2
0 -4 -4 -4 -10z"/>
<path d="M17080 16649 c0 -5 5 -7 10 -4 6 3 10 8 10 11 0 2 -4 4 -10 4 -5 0
-10 -5 -10 -11z"/>
<path d="M11631 16636 c-7 -8 -8 -17 -3 -20 6 -3 12 3 15 14 6 24 4 25 -12 6z"/>
<path d="M20660 16620 c0 -5 5 -10 11 -10 5 0 7 5 4 10 -3 6 -8 10 -11 10 -2
0 -4 -4 -4 -10z"/>
<path d="M11676 16608 c3 -5 10 -6 15 -3 13 9 11 12 -6 12 -8 0 -12 -4 -9 -9z"/>
<path d="M11685 16550 c4 -6 11 -8 16 -5 14 9 11 15 -7 15 -8 0 -12 -5 -9 -10z"/>
<path d="M11710 16520 c0 -5 3 -9 8 -9 20 3 23 -3 11 -18 -13 -16 -12 -17 4
-4 13 10 15 17 6 27 -13 16 -29 18 -29 4z"/>
<path d="M20565 16490 c-3 -6 1 -7 9 -4 18 7 21 14 7 14 -6 0 -13 -4 -16 -10z"/>
<path d="M11680 16421 c0 -6 4 -13 10 -16 6 -3 7 1 4 9 -7 18 -14 21 -14 7z"/>
<path d="M16980 15980 c-8 -5 -10 -10 -5 -10 6 0 17 5 25 10 8 5 11 10 5 10
-5 0 -17 -5 -25 -10z"/>
<path d="M17000 15940 c0 -5 5 -10 11 -10 5 0 7 5 4 10 -3 6 -8 10 -11 10 -2
0 -4 -4 -4 -10z"/>
<path d="M16976 15912 c-3 -5 1 -9 9 -9 8 0 12 4 9 9 -3 4 -7 8 -9 8 -2 0 -6
-4 -9 -8z"/>
<path d="M12140 15730 c0 -5 5 -10 11 -10 5 0 7 5 4 10 -3 6 -8 10 -11 10 -2
0 -4 -4 -4 -10z"/>
<path d="M12300 15501 c0 -5 6 -11 13 -14 8 -3 14 1 14 9 0 8 -6 14 -14 14 -7
0 -13 -4 -13 -9z"/>
<path d="M12528 15187 c-3 -13 -1 -32 3 -43 7 -17 8 -17 8 -1 1 10 6 15 11 12
6 -3 10 -2 10 4 0 5 -4 12 -10 16 -5 3 -7 12 -3 20 3 8 1 15 -5 15 -5 0 -12
-10 -14 -23z"/>
<path d="M12465 15130 c-3 -6 1 -7 9 -4 18 7 21 14 7 14 -6 0 -13 -4 -16 -10z"/>
<path d="M12765 14670 c-3 -5 -1 -10 4 -10 6 0 11 5 11 10 0 6 -2 10 -4 10 -3
0 -8 -4 -11 -10z"/>
<path d="M12910 14389 c0 -5 5 -7 10 -4 6 3 10 8 10 11 0 2 -4 4 -10 4 -5 0
-10 -5 -10 -11z"/>
<path d="M13105 14140 c-3 -6 1 -7 9 -4 18 7 21 14 7 14 -6 0 -13 -4 -16 -10z"/>
<path d="M13137 14079 c7 -7 15 -10 18 -7 3 3 -2 9 -12 12 -14 6 -15 5 -6 -5z"/>
<path d="M13370 14000 c0 -6 7 -13 15 -17 24 -9 27 1 5 15 -13 8 -20 8 -20 2z"/>
<path d="M13396 13961 c-4 -5 1 -8 9 -7 21 3 31 16 12 16 -9 0 -18 -4 -21 -9z"/>
<path d="M13486 13888 c4 -5 12 -7 19 -4 8 3 16 1 19 -5 2 -5 3 -4 2 2 -1 7
-12 13 -24 14 -11 1 -19 -2 -16 -7z"/>
<path d="M13510 13660 c18 -12 30 -13 30 -2 0 4 -10 9 -22 9 -18 2 -20 0 -8
-7z"/>
<path d="M13557 13629 c7 -7 15 -10 18 -7 3 3 -2 9 -12 12 -14 6 -15 5 -6 -5z"/>
<path d="M13520 13601 c0 -11 4 -22 9 -25 5 -3 9 6 9 19 0 14 -4 25 -9 25 -5
0 -9 -9 -9 -19z"/>
</g>
</svg>
